# Blender 5.1.0
# www.blender.org
o MainWall
v -4.376790 3.695418 1.000000
v 4.376790 3.695418 1.000000
v -4.376790 -3.388950 1.173926
v -4.304890 -3.388950 1.246917
v -4.304890 2.695057 1.000000
v -4.376790 2.741523 0.927051
v 4.304890 -3.388950 1.246917
v 4.376790 -3.388950 1.173926
v 4.376790 2.741523 0.927051
v 4.304890 2.695057 1.000000
v -4.376790 -2.600143 0.927009
v -4.304890 -2.600143 1.000000
v 4.376790 -2.600143 0.927009
v 4.304890 -2.600143 1.000000
v -4.304890 -6.593040 1.246917
v -4.376790 -6.593040 1.173968
v 4.376790 -6.593040 1.173968
v 4.304890 -6.593040 1.246917
v 4.376790 3.435877 1.750449
v 4.304890 3.388950 1.822349
v -4.376790 3.435877 1.750449
v -4.304890 3.388950 1.822349
v 4.304890 3.695418 1.822349
v 4.376790 3.695418 1.750449
v -4.376790 3.695418 1.750449
v -4.304890 3.695418 1.822349
v -4.376790 -6.593040 1.679900
v 4.376790 3.695418 0.000000
v -4.376790 3.695418 0.000000
v -4.304890 -6.593040 1.753569
v -4.376790 -3.388950 0.000000
v -4.376790 -6.593040 0.000000
v -4.376790 -2.600143 0.000000
v -4.376790 2.741523 0.000000
v 4.376790 -3.388950 0.000000
v 4.376790 -6.593040 0.000000
v 4.376790 -2.600143 0.000000
v 4.376790 2.741523 0.000000
v -4.376790 -6.593040 0.000000
v 4.376790 -6.593040 0.000000
v 4.376790 -6.593040 1.679900
v 4.304890 -6.593040 1.753569
v -4.376790 -7.547021 1.173968
v 4.376790 -7.547021 1.173968
v -4.376790 -7.547021 1.679900
v -4.304890 -7.547021 1.753569
v -4.376790 -7.547021 0.000000
v 4.376790 -7.547021 0.000000
v 4.376790 -7.547021 1.679900
v 4.304890 -7.547021 1.753569
v -4.376790 3.695418 -1.000000
v 4.376790 3.695418 -1.000000
v -4.376790 -3.388950 -1.173926
v -4.304890 -3.388950 -1.246917
v -4.304890 2.695057 -1.000000
v -4.376790 2.741523 -0.927051
v 4.304890 -3.388950 -1.246917
v 4.376790 -3.388950 -1.173926
v 4.376790 2.741523 -0.927051
v 4.304890 2.695057 -1.000000
v -4.376790 -2.600143 -0.927009
v -4.304890 -2.600143 -1.000000
v 4.376790 -2.600143 -0.927009
v 4.304890 -2.600143 -1.000000
v -4.304890 -6.593040 -1.246917
v -4.376790 -6.593040 -1.173968
v 4.376790 -6.593040 -1.173968
v 4.304890 -6.593040 -1.246917
v 4.376790 3.435877 -1.750449
v 4.304890 3.388950 -1.822349
v -4.376790 3.435877 -1.750449
v -4.304890 3.388950 -1.822349
v 4.304890 3.695418 -1.822349
v 4.376790 3.695418 -1.750449
v -4.376790 3.695418 -1.750449
v -4.304890 3.695418 -1.822349
v -4.376790 -6.593040 -1.679900
v -4.304890 -6.593040 -1.753569
v 4.376790 -6.593040 -1.679900
v 4.304890 -6.593040 -1.753569
v -4.376790 -7.547021 -1.173968
v 4.376790 -7.547021 -1.173968
v -4.376790 -7.547021 -1.679900
v -4.304890 -7.547021 -1.753569
v 4.376790 -7.547021 -1.679900
v 4.304890 -7.547021 -1.753569
v 4.304890 3.695418 -1.000000
v 4.304890 3.695418 0.000000
v 4.304890 3.695418 1.000000
v -4.304890 3.695418 -1.000000
v -4.304890 3.695418 0.000000
v -4.304890 3.695418 1.000000
vn -0.0000 1.0000 -0.0000
vn -0.7124 -0.0000 0.7018
vn 0.6958 0.2146 0.6854
vn -0.6958 0.2146 0.6854
vn 0.7122 -0.0000 0.7020
vn -0.7122 -0.0000 0.7020
vn 0.7124 -0.0000 0.7018
vn 0.7528 -0.5031 0.4245
vn -0.7528 -0.5031 0.4245
vn 0.7071 -0.0000 0.7071
vn -0.7071 -0.0000 0.7071
vn -0.0000 0.2987 0.9543
vn -0.0000 -0.0000 1.0000
vn -0.0000 -0.7643 0.6449
vn -1.0000 -0.0000 -0.0000
vn 1.0000 -0.0000 -0.0000
vn -0.7156 -0.0000 0.6985
vn 0.7156 -0.0000 0.6985
vn -0.7124 -0.0000 -0.7018
vn 0.6958 0.2146 -0.6854
vn -0.6958 0.2146 -0.6854
vn 0.7124 -0.0000 -0.7018
vn -0.7122 -0.0000 -0.7020
vn 0.7122 -0.0000 -0.7020
vn 0.7528 -0.5031 -0.4245
vn -0.7541 -0.5021 -0.4234
vn 0.7071 -0.0000 -0.7071
vn -0.7071 -0.0000 -0.7071
vn -0.0000 0.2987 -0.9543
vn -0.0000 -0.0000 -1.0000
vn -0.0000 -0.7643 -0.6449
vn -0.7156 -0.0000 -0.6985
vn 0.7156 -0.0000 -0.6985
vn 0.7541 -0.5021 0.4234
vn -0.7541 -0.5021 0.4234
vn 0.7541 -0.5021 -0.4234
vn -0.7528 -0.5031 -0.4245
vt 0.687016 0.441865
vt 0.749561 0.446362
vt 0.687016 0.446362
vt 0.670542 0.905135
vt 0.664073 0.578295
vt 0.670542 0.578295
vt 0.670542 0.527173
vt 0.664073 0.527173
vt 0.664073 0.905135
vt 0.664073 0.327175
vt 0.670542 0.327175
vt 0.670542 0.975235
vt 0.664073 0.975235
vt 0.670542 0.975236
vt 0.664073 0.992295
vt 0.670542 0.992295
vt 0.539062 0.580078
vt -0.000000 0.529297
vt 0.539062 0.529297
vt 0.539062 0.328125
vt 0.539062 0.912109
vt -0.000000 0.580078
vt -0.000000 0.978516
vt -0.000000 0.912109
vt 0.605469 0.968750
vt 0.652344 0.953125
vt 0.652344 0.968750
vt 0.617188 0.527344
vt 0.542969 0.328125
vt 0.542969 0.527344
vt 0.601562 0.574219
vt 0.542969 0.968750
vt 0.601562 0.910156
vt 0.542969 0.910156
vt 0.542969 0.574219
vt 0.539062 0.998047
vt 0.539062 0.978516
vt 0.796498 0.441865
vt 0.800995 0.446362
vt 0.847656 0.261719
vt 0.816406 0.257812
vt 0.847656 0.257812
vt 0.847656 0.800781
vt 0.816406 0.261719
vt 0.617188 0.328125
vt 0.816406 0.804688
vt 0.816406 0.800781
vt 0.648438 0.328125
vt 0.617188 0.265625
vt 0.652344 0.265625
vt 0.652344 0.328125
vt 0.542969 0.265625
vt 0.937500 0.800781
vt 0.878906 0.261719
vt 0.937500 0.261719
vt 0.648438 0.265625
vt 0.664073 0.975236
vt 0.749561 0.441865
vt 0.847656 0.804688
vt 0.687016 0.984860
vt 0.749561 0.989357
vt 0.687016 0.989357
vt 0.796497 0.989357
vt 0.749561 0.984860
vt 0.800994 0.984860
vt 0.800994 0.984860
vt -0.000000 0.328125
vt -0.000000 0.998047
vt 0.878906 0.800781
s 0
f 29/1/1 92/2/1 91/3/1
f 5/4/2 11/5/2 12/6/2
f 14/5/3 8/7/3 13/6/3
f 12/6/4 3/8/4 4/7/4
f 10/9/5 13/6/5 9/4/5
f 4/7/6 16/10/6 15/11/6
f 7/8/7 17/11/7 8/7/7
f 10/9/8 19/12/8 20/13/8
f 21/13/9 5/4/9 22/14/9
f 23/15/10 19/12/10 24/16/10
f 26/16/11 21/13/11 22/14/11
f 14/17/12 4/18/12 7/19/12
f 4/18/13 18/20/13 7/19/13
f 10/21/13 12/22/13 14/17/13
f 10/21/14 22/23/14 5/24/14
f 1/25/15 21/26/15 25/27/15
f 8/28/16 36/29/16 35/30/16
f 35/30/16 13/31/16 8/28/16
f 28/32/16 9/33/16 38/34/16
f 38/34/16 13/31/16 37/35/16
f 2/25/16 19/26/16 9/33/16
f 23/36/13 22/23/13 20/37/13
f 92/2/1 25/38/1 26/39/1
f 18/40/1 41/41/1 17/42/1
f 15/43/1 42/44/1 18/40/1
f 6/33/15 29/32/15 34/34/15
f 11/31/15 34/34/15 33/35/15
f 11/31/15 31/30/15 3/28/15
f 3/28/15 32/29/15 16/45/15
f 15/43/1 27/46/1 30/47/1
f 41/48/16 44/49/16 17/45/16
f 27/48/17 46/50/17 30/51/17
f 32/29/15 43/49/15 16/45/15
f 17/45/16 48/52/16 36/29/16
f 30/53/13 50/54/13 42/55/13
f 42/51/18 49/56/18 41/48/18
f 16/45/15 45/56/15 27/48/15
f 90/2/1 29/1/1 91/3/1
f 61/5/19 55/4/19 62/6/19
f 64/5/20 58/7/20 57/8/20
f 53/8/21 62/6/21 54/7/21
f 60/9/22 63/6/22 64/5/22
f 66/10/23 54/7/23 65/11/23
f 57/8/24 67/11/24 68/10/24
f 69/12/25 60/9/25 70/13/25
f 71/57/26 55/4/26 56/9/26
f 73/15/27 69/12/27 70/13/27
f 71/57/28 76/16/28 72/14/28
f 54/18/29 64/17/29 57/19/29
f 68/20/30 54/18/30 57/19/30
f 62/22/30 60/21/30 64/17/30
f 72/23/31 60/21/31 55/24/31
f 51/25/15 71/26/15 56/33/15
f 36/29/16 58/28/16 35/30/16
f 35/30/16 63/31/16 37/35/16
f 59/33/16 28/32/16 38/34/16
f 63/31/16 38/34/16 37/35/16
f 69/26/16 52/25/16 59/33/16
f 72/23/30 73/36/30 70/37/30
f 90/2/1 75/38/1 51/58/1
f 79/41/1 68/40/1 67/42/1
f 80/44/1 65/43/1 68/40/1
f 56/33/15 29/32/15 51/25/15
f 61/31/15 34/34/15 56/33/15
f 31/30/15 61/31/15 53/28/15
f 53/28/15 32/29/15 31/30/15
f 65/43/1 77/46/1 66/59/1
f 82/49/16 79/48/16 67/45/16
f 84/50/32 77/48/32 78/51/32
f 81/49/15 32/29/15 66/45/15
f 48/52/16 67/45/16 36/29/16
f 86/54/30 78/53/30 80/55/30
f 85/56/33 80/51/33 79/48/33
f 83/56/15 66/45/15 77/48/15
f 88/60/1 2/61/1 28/62/1
f 52/61/1 88/60/1 28/62/1
f 74/63/1 87/64/1 52/61/1
f 89/64/1 24/63/1 2/61/1
f 88/60/1 92/2/1 89/64/1
f 87/64/1 91/3/1 88/60/1
f 73/65/1 90/2/1 87/64/1
f 92/2/1 23/66/1 89/64/1
f 29/1/1 1/58/1 92/2/1
f 5/4/6 6/9/6 11/5/6
f 14/5/3 7/8/3 8/7/3
f 12/6/4 11/5/4 3/8/4
f 10/9/7 14/5/7 13/6/7
f 4/7/2 3/8/2 16/10/2
f 7/8/5 18/10/5 17/11/5
f 10/9/34 9/4/34 19/12/34
f 21/13/35 6/9/35 5/4/35
f 23/15/10 20/13/10 19/12/10
f 26/16/11 25/15/11 21/13/11
f 14/17/12 12/22/12 4/18/12
f 4/18/13 15/67/13 18/20/13
f 10/21/13 5/24/13 12/22/13
f 10/21/14 20/37/14 22/23/14
f 1/25/15 6/33/15 21/26/15
f 8/28/16 17/45/16 36/29/16
f 35/30/16 37/35/16 13/31/16
f 28/32/16 2/25/16 9/33/16
f 38/34/16 9/33/16 13/31/16
f 2/25/16 24/27/16 19/26/16
f 23/36/13 26/68/13 22/23/13
f 92/2/1 1/58/1 25/38/1
f 18/40/1 42/44/1 41/41/1
f 15/43/1 30/47/1 42/44/1
f 6/33/15 1/25/15 29/32/15
f 11/31/15 6/33/15 34/34/15
f 11/31/15 33/35/15 31/30/15
f 3/28/15 31/30/15 32/29/15
f 15/43/1 16/59/1 27/46/1
f 41/48/16 49/56/16 44/49/16
f 27/48/17 45/56/17 46/50/17
f 32/29/15 47/52/15 43/49/15
f 17/45/16 44/49/16 48/52/16
f 30/53/13 46/69/13 50/54/13
f 42/51/18 50/50/18 49/56/18
f 16/45/15 43/49/15 45/56/15
f 90/2/1 51/58/1 29/1/1
f 61/5/23 56/9/23 55/4/23
f 64/5/20 63/6/20 58/7/20
f 53/8/21 61/5/21 62/6/21
f 60/9/24 59/4/24 63/6/24
f 66/10/19 53/8/19 54/7/19
f 57/8/22 58/7/22 67/11/22
f 69/12/36 59/4/36 60/9/36
f 71/57/37 72/14/37 55/4/37
f 73/15/27 74/16/27 69/12/27
f 71/57/28 75/15/28 76/16/28
f 54/18/29 62/22/29 64/17/29
f 68/20/30 65/67/30 54/18/30
f 62/22/30 55/24/30 60/21/30
f 72/23/31 70/37/31 60/21/31
f 51/25/15 75/27/15 71/26/15
f 36/29/16 67/45/16 58/28/16
f 35/30/16 58/28/16 63/31/16
f 59/33/16 52/25/16 28/32/16
f 63/31/16 59/33/16 38/34/16
f 69/26/16 74/27/16 52/25/16
f 72/23/30 76/68/30 73/36/30
f 90/2/1 76/39/1 75/38/1
f 79/41/1 80/44/1 68/40/1
f 80/44/1 78/47/1 65/43/1
f 56/33/15 34/34/15 29/32/15
f 61/31/15 33/35/15 34/34/15
f 31/30/15 33/35/15 61/31/15
f 53/28/15 66/45/15 32/29/15
f 65/43/1 78/47/1 77/46/1
f 82/49/16 85/56/16 79/48/16
f 84/50/32 83/56/32 77/48/32
f 81/49/15 47/52/15 32/29/15
f 48/52/16 82/49/16 67/45/16
f 86/54/30 84/69/30 78/53/30
f 85/56/33 86/50/33 80/51/33
f 83/56/15 81/49/15 66/45/15
f 88/60/1 89/64/1 2/61/1
f 52/61/1 87/64/1 88/60/1
f 74/63/1 73/65/1 87/64/1
f 89/64/1 23/66/1 24/63/1
f 88/60/1 91/3/1 92/2/1
f 87/64/1 90/2/1 91/3/1
f 73/65/1 76/39/1 90/2/1
f 92/2/1 26/39/1 23/66/1
l 36 40
l 32 39
o BeamInternal
v -3.194163 3.721450 1.519720
v -3.194163 4.208375 1.511220
v -3.359460 3.668545 -1.511220
v -3.333865 3.668545 -1.511220
v -3.499162 3.721450 1.519720
v -3.499162 4.208375 1.511220
v -3.194163 4.178765 1.511737
v -3.194163 3.751060 1.519203
v -3.333865 4.155470 -1.519720
v -3.359460 4.155470 -1.519720
v -3.499162 3.751060 1.519203
v -3.499162 4.178765 1.511737
v -3.359460 4.208375 1.511220
v -3.333865 4.208375 1.511220
v -3.333865 3.721450 1.519720
v -3.359460 3.721450 1.519720
v -3.499162 3.698155 -1.511737
v -3.499162 3.668545 -1.511220
v -3.194163 3.698155 -1.511737
v -3.194163 3.668545 -1.511220
v -3.194163 4.125860 -1.519203
v -3.194163 4.155470 -1.519720
v -3.499162 4.155470 -1.519720
v -3.499162 4.125860 -1.519203
v -3.333865 3.711127 -1.511963
v -3.325740 3.698155 -1.511737
v -3.333865 3.685184 -1.511511
v -3.341990 3.698155 -1.511737
v -3.367585 3.698155 -1.511737
v -3.359460 3.711127 -1.511963
v -3.351336 3.698155 -1.511737
v -3.359460 3.685184 -1.511511
v -3.359460 4.112888 -1.518976
v -3.367585 4.125860 -1.519203
v -3.359460 4.138832 -1.519429
v -3.351336 4.125860 -1.519203
v -3.325740 4.125860 -1.519203
v -3.333865 4.112888 -1.518976
v -3.341990 4.125860 -1.519203
v -3.333865 4.138832 -1.519429
v -3.333865 4.165793 1.511963
v -3.325740 4.178765 1.511737
v -3.333865 4.191737 1.511511
v -3.341990 4.178765 1.511737
v -3.367585 4.178765 1.511737
v -3.359460 4.165793 1.511963
v -3.351336 4.178765 1.511737
v -3.359460 4.191737 1.511511
v -3.359460 3.764032 1.518976
v -3.367585 3.751060 1.519203
v -3.359460 3.738089 1.519429
v -3.351336 3.751060 1.519203
v -3.325740 3.751060 1.519203
v -3.333865 3.764032 1.518976
v -3.341990 3.751060 1.519203
v -3.333865 3.738089 1.519429
v -3.333865 3.998749 1.291398
v -3.333865 3.923277 1.292715
v -3.333865 3.857258 1.256120
v -3.333865 3.818381 1.191418
v -3.333865 4.063451 1.252521
v -3.333865 4.100046 1.186502
v -3.333865 3.817064 1.115946
v -3.333865 4.098729 1.111030
v -3.333865 3.909694 0.514561
v -3.333865 3.918361 1.011050
v -3.333865 3.993833 1.009733
v -3.333865 3.853659 1.049927
v -3.333865 4.059852 1.046328
v -3.333865 3.985166 0.513244
v -3.333865 3.843675 0.477966
v -3.333865 3.803481 0.337792
v -3.333865 3.904778 0.232896
v -3.333865 3.840076 0.271773
v -3.333865 3.804798 0.413264
v -3.333865 3.830651 -0.268174
v -3.333865 3.896670 -0.231579
v -3.333865 3.790457 -0.408348
v -3.333865 3.827052 -0.474367
v -3.333865 3.791774 -0.332876
v -3.333865 4.049869 0.474367
v -3.333865 4.086463 0.408348
v -3.333865 4.085146 0.332876
v -3.333865 3.980250 0.231579
v -3.333865 4.046269 0.268174
v -3.333865 4.036844 -0.271773
v -3.333865 3.972142 -0.232896
v -3.333865 4.072122 -0.413264
v -3.333865 4.033246 -0.477966
v -3.333865 4.073440 -0.337792
v -3.333865 3.891754 -0.513244
v -3.333865 3.883088 -1.009733
v -3.333865 3.958560 -1.011050
v -3.333865 3.778192 -1.111030
v -3.333865 3.817069 -1.046328
v -3.333865 4.023262 -1.049927
v -3.333865 4.058539 -1.191418
v -3.333865 3.878171 -1.291398
v -3.333865 3.953644 -1.292715
v -3.333865 3.776874 -1.186502
v -3.333865 3.813470 -1.252521
v -3.333865 4.019663 -1.256120
v -3.333865 4.059857 -1.115946
v -3.333865 3.967226 -0.514561
v -3.359460 3.998749 1.291398
v -3.359460 3.923277 1.292715
v -3.359460 3.857258 1.256120
v -3.359460 3.818381 1.191418
v -3.359460 4.063451 1.252521
v -3.359460 4.100046 1.186502
v -3.359460 3.817064 1.115946
v -3.359460 4.098729 1.111030
v -3.359460 3.918361 1.011050
v -3.359460 3.993833 1.009733
v -3.359460 3.853659 1.049927
v -3.359460 4.059852 1.046328
v -3.359460 4.049869 0.474367
v -3.359460 3.985166 0.513244
v -3.359460 4.085146 0.332876
v -3.359460 4.046269 0.268174
v -3.359460 4.086463 0.408348
v -3.359460 3.972142 -0.232896
v -3.359460 3.980250 0.231579
v -3.359460 4.036844 -0.271773
v -3.359460 4.072122 -0.413264
v -3.359460 4.033246 -0.477966
v -3.359460 4.073440 -0.337792
v -3.359460 3.909694 0.514561
v -3.359460 3.804798 0.413264
v -3.359460 3.843675 0.477966
v -3.359460 3.803481 0.337792
v -3.359460 3.904778 0.232896
v -3.359460 3.840076 0.271773
v -3.359460 3.830651 -0.268174
v -3.359460 3.896670 -0.231579
v -3.359460 3.790457 -0.408348
v -3.359460 3.827052 -0.474367
v -3.359460 3.791774 -0.332876
v -3.359460 3.883088 -1.009733
v -3.359460 3.891754 -0.513244
v -3.359460 3.958560 -1.011050
v -3.359460 3.778192 -1.111030
v -3.359460 3.817069 -1.046328
v -3.359460 4.023262 -1.049927
v -3.359460 4.058539 -1.191418
v -3.359460 3.878171 -1.291398
v -3.359460 3.953644 -1.292715
v -3.359460 3.776874 -1.186502
v -3.359460 3.813470 -1.252521
v -3.359460 4.019663 -1.256120
v -3.359460 4.059857 -1.115946
v -3.359460 3.967226 -0.514561
v -0.153503 3.694960 1.515701
v -0.153503 4.181960 1.515701
v 0.011795 3.694960 -1.515701
v -0.013801 3.694960 -1.515701
v 0.151497 3.694960 1.515701
v 0.151497 4.181960 1.515701
v -0.153503 4.152346 1.515701
v -0.153503 3.724575 1.515701
v -0.013801 4.181960 -1.515701
v 0.011795 4.181960 -1.515701
v 0.151497 3.724575 1.515701
v 0.151497 4.152346 1.515701
v 0.011795 4.181960 1.515701
v -0.013801 4.181960 1.515701
v -0.013801 3.694960 1.515701
v 0.011795 3.694960 1.515701
v 0.151497 3.724575 -1.515701
v 0.151497 3.694960 -1.515701
v -0.153503 3.724575 -1.515701
v -0.153503 3.694960 -1.515701
v -0.153503 4.152346 -1.515701
v -0.153503 4.181960 -1.515701
v 0.151497 4.181960 -1.515701
v 0.151497 4.152346 -1.515701
v -0.013801 3.737549 -1.515701
v -0.021926 3.724575 -1.515701
v -0.013801 3.711601 -1.515701
v -0.005676 3.724575 -1.515701
v 0.019920 3.724575 -1.515701
v 0.011795 3.737549 -1.515701
v 0.003670 3.724575 -1.515701
v 0.011795 3.711601 -1.515701
v 0.011795 4.139372 -1.515701
v 0.019920 4.152346 -1.515701
v 0.011795 4.165318 -1.515701
v 0.003670 4.152346 -1.515701
v -0.021926 4.152346 -1.515701
v -0.013801 4.139372 -1.515701
v -0.005676 4.152346 -1.515701
v -0.013801 4.165318 -1.515701
v -0.013801 4.139372 1.515701
v -0.021926 4.152346 1.515701
v -0.013801 4.165318 1.515701
v -0.005676 4.152346 1.515701
v 0.019920 4.152346 1.515701
v 0.011795 4.139372 1.515701
v 0.003670 4.152346 1.515701
v 0.011795 4.165318 1.515701
v 0.011795 3.737549 1.515701
v 0.019920 3.724575 1.515701
v 0.011795 3.711601 1.515701
v 0.003670 3.724575 1.515701
v -0.021926 3.724575 1.515701
v -0.013801 3.737549 1.515701
v -0.005676 3.724575 1.515701
v -0.013801 3.711601 1.515701
v -0.013801 3.976202 1.292253
v -0.013801 3.900719 1.292253
v -0.013801 3.835348 1.254511
v -0.013801 3.797606 1.189141
v -0.013801 4.041573 1.254511
v -0.013801 4.079314 1.189141
v -0.013801 3.797606 1.113658
v -0.013801 4.079314 1.113657
v -0.013801 3.900718 0.513981
v -0.013801 3.900718 1.010545
v -0.013801 3.976202 1.010545
v -0.013801 3.835348 1.048287
v -0.013801 4.041573 1.048287
v -0.013801 3.976202 0.513981
v -0.013801 3.835348 0.476239
v -0.013801 3.797606 0.335385
v -0.013801 3.900718 0.232273
v -0.013801 3.835348 0.270015
v -0.013801 3.797606 0.410869
v -0.013801 3.835348 -0.270015
v -0.013801 3.900718 -0.232273
v -0.013801 3.797606 -0.410869
v -0.013801 3.835348 -0.476239
v -0.013801 3.797606 -0.335385
v -0.013801 4.041573 0.476239
v -0.013801 4.079314 0.410869
v -0.013801 4.079314 0.335385
v -0.013801 3.976202 0.232273
v -0.013801 4.041573 0.270015
v -0.013801 4.041573 -0.270015
v -0.013801 3.976202 -0.232273
v -0.013801 4.079314 -0.410869
v -0.013801 4.041573 -0.476239
v -0.013801 4.079314 -0.335385
v -0.013801 3.900718 -0.513981
v -0.013801 3.900718 -1.010545
v -0.013801 3.976202 -1.010545
v -0.013801 3.797606 -1.113657
v -0.013801 3.835348 -1.048287
v -0.013801 4.041573 -1.048287
v -0.013801 4.079314 -1.189141
v -0.013801 3.900719 -1.292253
v -0.013801 3.976202 -1.292253
v -0.013801 3.797606 -1.189141
v -0.013801 3.835348 -1.254511
v -0.013801 4.041573 -1.254511
v -0.013801 4.079314 -1.113657
v -0.013801 3.976202 -0.513981
v 0.011795 3.976202 1.292253
v 0.011795 3.900719 1.292253
v 0.011795 3.835348 1.254511
v 0.011795 3.797606 1.189141
v 0.011795 4.041573 1.254511
v 0.011795 4.079314 1.189141
v 0.011795 3.797606 1.113658
v 0.011795 4.079314 1.113657
v 0.011795 3.900719 1.010545
v 0.011795 3.976202 1.010545
v 0.011795 3.835348 1.048287
v 0.011795 4.041573 1.048287
v 0.011795 4.041573 0.476239
v 0.011795 3.976202 0.513981
v 0.011795 4.079314 0.335385
v 0.011795 4.041573 0.270015
v 0.011795 4.079314 0.410869
v 0.011795 3.976202 -0.232273
v 0.011795 3.976202 0.232273
v 0.011795 4.041573 -0.270015
v 0.011795 4.079314 -0.410869
v 0.011795 4.041573 -0.476239
v 0.011795 4.079314 -0.335385
v 0.011795 3.900719 0.513981
v 0.011795 3.797606 0.410869
v 0.011795 3.835348 0.476239
v 0.011795 3.797606 0.335385
v 0.011795 3.900718 0.232273
v 0.011795 3.835348 0.270015
v 0.011795 3.835348 -0.270015
v 0.011795 3.900718 -0.232273
v 0.011795 3.797606 -0.410869
v 0.011795 3.835348 -0.476239
v 0.011795 3.797606 -0.335385
v 0.011795 3.900719 -1.010545
v 0.011795 3.900719 -0.513981
v 0.011795 3.976202 -1.010545
v 0.011795 3.797606 -1.113657
v 0.011795 3.835348 -1.048287
v 0.011795 4.041573 -1.048287
v 0.011795 4.079314 -1.189141
v 0.011795 3.900719 -1.292253
v 0.011795 3.976202 -1.292253
v 0.011795 3.797606 -1.189141
v 0.011795 3.835348 -1.254511
v 0.011795 4.041573 -1.254511
v 0.011795 4.079314 -1.113657
v 0.011795 3.976202 -0.513981
v 3.192162 3.694960 1.515701
v 3.192162 4.181960 1.515701
v 3.357460 3.694960 -1.515701
v 3.331864 3.694960 -1.515701
v 3.497162 3.694960 1.515701
v 3.497162 4.181960 1.515701
v 3.192162 4.152346 1.515701
v 3.192162 3.724575 1.515701
v 3.331864 4.181960 -1.515701
v 3.357460 4.181960 -1.515701
v 3.497162 3.724575 1.515701
v 3.497162 4.152346 1.515701
v 3.357460 4.181960 1.515701
v 3.331864 4.181960 1.515701
v 3.331864 3.694960 1.515701
v 3.357460 3.694960 1.515701
v 3.497162 3.724575 -1.515701
v 3.497162 3.694960 -1.515701
v 3.192162 3.724575 -1.515701
v 3.192162 3.694960 -1.515701
v 3.192162 4.152346 -1.515701
v 3.192162 4.181960 -1.515701
v 3.497162 4.181960 -1.515701
v 3.497162 4.152346 -1.515701
v 3.331864 3.737549 -1.515701
v 3.323739 3.724575 -1.515701
v 3.331864 3.711601 -1.515701
v 3.339989 3.724575 -1.515701
v 3.365585 3.724575 -1.515701
v 3.357460 3.737549 -1.515701
v 3.349335 3.724575 -1.515701
v 3.357460 3.711601 -1.515701
v 3.357460 4.139372 -1.515701
v 3.365585 4.152346 -1.515701
v 3.357460 4.165318 -1.515701
v 3.349335 4.152346 -1.515701
v 3.323739 4.152346 -1.515701
v 3.331864 4.139372 -1.515701
v 3.339989 4.152346 -1.515701
v 3.331864 4.165318 -1.515701
v 3.331864 4.139372 1.515701
v 3.323739 4.152346 1.515701
v 3.331864 4.165318 1.515701
v 3.339989 4.152346 1.515701
v 3.365585 4.152346 1.515701
v 3.357460 4.139372 1.515701
v 3.349335 4.152346 1.515701
v 3.357460 4.165318 1.515701
v 3.357460 3.737549 1.515701
v 3.365585 3.724575 1.515701
v 3.357460 3.711601 1.515701
v 3.349335 3.724575 1.515701
v 3.323739 3.724575 1.515701
v 3.331864 3.737549 1.515701
v 3.339989 3.724575 1.515701
v 3.331864 3.711601 1.515701
v 3.331864 3.976202 1.292253
v 3.331864 3.900719 1.292253
v 3.331864 3.835348 1.254511
v 3.331864 3.797606 1.189141
v 3.331864 4.041573 1.254511
v 3.331864 4.079314 1.189141
v 3.331864 3.797606 1.113658
v 3.331864 4.079314 1.113657
v 3.331864 3.900718 0.513981
v 3.331864 3.900718 1.010545
v 3.331864 3.976202 1.010545
v 3.331864 3.835348 1.048287
v 3.331864 4.041573 1.048287
v 3.331864 3.976202 0.513981
v 3.331864 3.835348 0.476239
v 3.331864 3.797606 0.335385
v 3.331864 3.900718 0.232273
v 3.331864 3.835348 0.270015
v 3.331864 3.797606 0.410869
v 3.331864 3.835348 -0.270015
v 3.331864 3.900718 -0.232273
v 3.331864 3.797606 -0.410869
v 3.331864 3.835348 -0.476239
v 3.331864 3.797606 -0.335385
v 3.331864 4.041573 0.476239
v 3.331864 4.079314 0.410869
v 3.331864 4.079314 0.335385
v 3.331864 3.976202 0.232273
v 3.331864 4.041573 0.270015
v 3.331864 4.041573 -0.270015
v 3.331864 3.976202 -0.232273
v 3.331864 4.079314 -0.410869
v 3.331864 4.041573 -0.476239
v 3.331864 4.079314 -0.335385
v 3.331864 3.900718 -0.513981
v 3.331864 3.900718 -1.010545
v 3.331864 3.976202 -1.010545
v 3.331864 3.797606 -1.113657
v 3.331864 3.835348 -1.048287
v 3.331864 4.041573 -1.048287
v 3.331864 4.079314 -1.189141
v 3.331864 3.900719 -1.292253
v 3.331864 3.976202 -1.292253
v 3.331864 3.797606 -1.189141
v 3.331864 3.835348 -1.254511
v 3.331864 4.041573 -1.254511
v 3.331864 4.079314 -1.113657
v 3.331864 3.976202 -0.513981
v 3.357460 3.976202 1.292253
v 3.357460 3.900719 1.292253
v 3.357460 3.835348 1.254511
v 3.357460 3.797606 1.189141
v 3.357460 4.041573 1.254511
v 3.357460 4.079314 1.189141
v 3.357460 3.797606 1.113658
v 3.357460 4.079314 1.113657
v 3.357460 3.900719 1.010545
v 3.357460 3.976202 1.010545
v 3.357460 3.835348 1.048287
v 3.357460 4.041573 1.048287
v 3.357460 4.041573 0.476239
v 3.357460 3.976202 0.513981
v 3.357460 4.079314 0.335385
v 3.357460 4.041573 0.270015
v 3.357460 4.079314 0.410869
v 3.357460 3.976202 -0.232273
v 3.357460 3.976202 0.232273
v 3.357460 4.041573 -0.270015
v 3.357460 4.079314 -0.410869
v 3.357460 4.041573 -0.476239
v 3.357460 4.079314 -0.335385
v 3.357460 3.900719 0.513981
v 3.357460 3.797606 0.410869
v 3.357460 3.835348 0.476239
v 3.357460 3.797606 0.335385
v 3.357460 3.900718 0.232273
v 3.357460 3.835348 0.270015
v 3.357460 3.835348 -0.270015
v 3.357460 3.900718 -0.232273
v 3.357460 3.797606 -0.410869
v 3.357460 3.835348 -0.476239
v 3.357460 3.797606 -0.335385
v 3.357460 3.900719 -1.010545
v 3.357460 3.900719 -0.513981
v 3.357460 3.976202 -1.010545
v 3.357460 3.797606 -1.113657
v 3.357460 3.835348 -1.048287
v 3.357460 4.041573 -1.048287
v 3.357460 4.079314 -1.189141
v 3.357460 3.900719 -1.292253
v 3.357460 3.976202 -1.292253
v 3.357460 3.797606 -1.189141
v 3.357460 3.835348 -1.254511
v 3.357460 4.041573 -1.254511
v 3.357460 4.079314 -1.113657
v 3.357460 3.976202 -0.513981
vn -1.0000 -0.0000 -0.0000
vn -0.0000 0.9998 -0.0175
vn -0.0000 0.0175 0.9998
vn -0.0000 -0.0175 -0.9998
vn 1.0000 -0.0000 -0.0000
vn -0.0000 -0.0174 -0.9998
vn -0.0000 0.0174 0.9998
vn -0.8475 -0.5307 0.0093
vn 0.8475 -0.5307 0.0093
vn 0.8475 0.5307 -0.0093
vn -0.8475 0.5307 -0.0093
vn -0.0000 -0.9998 0.0175
vn -0.0000 0.5150 0.8572
vn -0.0000 0.8746 0.4848
vn -0.0000 0.8572 -0.5150
vn -0.0000 0.4848 -0.8746
vn -0.0000 -0.5150 -0.8572
vn -0.0000 -0.8746 -0.4848
vn -0.0000 -0.8572 0.5150
vn -0.0000 -0.4848 0.8746
vn -0.0000 1.0000 -0.0000
vn -0.0000 -0.0000 1.0000
vn -0.0000 -0.0000 -1.0000
vn 0.8475 -0.5308 -0.0000
vn -0.8475 -0.5308 -0.0000
vn -0.8475 0.5308 -0.0000
vn 0.8475 0.5308 -0.0000
vn -0.0000 -1.0000 -0.0000
vn -0.0000 0.5000 0.8660
vn -0.0000 0.8660 0.5000
vn -0.0000 0.8660 -0.5000
vn -0.0000 0.5000 -0.8660
vn -0.0000 -0.5000 -0.8660
vn -0.0000 -0.8660 -0.5000
vn -0.0000 -0.8660 0.5000
vn -0.0000 -0.5000 0.8660
vt 0.617637 0.043814
vt 0.619344 0.249527
vt 0.619344 0.043814
vt 0.608108 0.043814
vt 0.609583 0.249527
vt 0.609583 0.043814
vt 0.617636 0.249527
vt 0.702718 0.393305
vt 0.701711 0.392557
vt 0.701242 0.394264
vt 0.728240 0.391875
vt 0.727771 0.367964
vt 0.726764 0.368712
vt 0.702249 0.392557
vt 0.702718 0.368647
vt 0.701242 0.391809
vt 0.701242 0.367151
vt 0.702718 0.366191
vt 0.701242 0.366191
vt 0.659442 0.043814
vt 0.661149 0.249527
vt 0.661149 0.043814
vt 0.600054 0.043814
vt 0.598347 0.249527
vt 0.600054 0.249527
vt 0.558249 0.043814
vt 0.556542 0.249527
vt 0.558249 0.249527
vt 0.608108 0.249527
vt 0.728708 0.367964
vt 0.728240 0.368712
vt 0.726296 0.367964
vt 0.727232 0.367964
vt 0.726764 0.367216
vt 0.726296 0.392623
vt 0.727232 0.392623
vt 0.726764 0.391875
vt 0.728708 0.392623
vt 0.727771 0.392623
vt 0.728240 0.393371
vt 0.700774 0.392557
vt 0.703186 0.392557
vt 0.703186 0.367899
vt 0.702249 0.367899
vt 0.700774 0.367899
vt 0.701711 0.367899
vt 0.626929 0.043814
vt 0.627811 0.249527
vt 0.627811 0.043814
vt 0.590762 0.043814
vt 0.589880 0.249527
vt 0.590762 0.249527
vt 0.565834 0.249527
vt 0.566716 0.043814
vt 0.565834 0.043814
vt 0.651857 0.249527
vt 0.650975 0.043814
vt 0.650975 0.249526
vt 0.728240 0.366257
vt 0.736293 0.367964
vt 0.584242 0.128347
vt 0.584242 0.164994
vt 0.586418 0.169430
vt 0.576122 0.162433
vt 0.576122 0.130908
vt 0.572354 0.128347
vt 0.651857 0.043814
vt 0.659442 0.249527
vt 0.726764 0.366257
vt 0.718711 0.366257
vt 0.641569 0.130908
vt 0.641569 0.162432
vt 0.645337 0.164994
vt 0.633449 0.164994
vt 0.633449 0.128347
vt 0.631273 0.123911
vt 0.626929 0.249527
vt 0.726764 0.394330
vt 0.718711 0.392623
vt 0.598347 0.043814
vt 0.728240 0.394330
vt 0.736293 0.394330
vt 0.701242 0.368647
vt 0.701242 0.393305
vt 0.693189 0.392557
vt 0.693189 0.394264
vt 0.710771 0.392557
vt 0.702718 0.394264
vt 0.702718 0.367151
vt 0.710771 0.367899
vt 0.710771 0.366191
vt 0.693189 0.367899
vt 0.731828 0.317849
vt 0.730353 0.322200
vt 0.731828 0.322200
vt 0.730353 0.326757
vt 0.731828 0.326757
vt 0.731828 0.331698
vt 0.730353 0.336820
vt 0.731828 0.336820
vt 0.730353 0.341761
vt 0.731828 0.341761
vt 0.730353 0.346317
vt 0.731828 0.346317
vt 0.731828 0.350669
vt 0.730353 0.350669
vt 0.730353 0.355225
vt 0.731828 0.355225
vt 0.730353 0.360166
vt 0.731828 0.360166
vt 0.731828 0.308352
vt 0.730353 0.303230
vt 0.730353 0.308352
vt 0.730353 0.313293
vt 0.731828 0.313293
vt 0.730353 0.317849
vt 0.696277 0.316472
vt 0.694802 0.320823
vt 0.696277 0.320823
vt 0.694802 0.325379
vt 0.696277 0.325379
vt 0.696277 0.330320
vt 0.694802 0.330320
vt 0.696277 0.335442
vt 0.694802 0.340383
vt 0.696277 0.340383
vt 0.694802 0.344939
vt 0.696277 0.344939
vt 0.696277 0.349291
vt 0.694802 0.349291
vt 0.696277 0.353847
vt 0.694802 0.353847
vt 0.694802 0.358788
vt 0.696277 0.358788
vt 0.696277 0.301852
vt 0.694802 0.306975
vt 0.696277 0.306975
vt 0.694802 0.311915
vt 0.696277 0.311915
vt 0.719040 0.345358
vt 0.720515 0.349709
vt 0.720515 0.345358
vt 0.720515 0.340801
vt 0.719040 0.340801
vt 0.720515 0.335860
vt 0.720515 0.330738
vt 0.719040 0.335860
vt 0.720515 0.325797
vt 0.719040 0.330738
vt 0.719040 0.321241
vt 0.720515 0.321241
vt 0.720515 0.316890
vt 0.719040 0.312333
vt 0.720515 0.312333
vt 0.719040 0.307392
vt 0.720515 0.307392
vt 0.719040 0.302270
vt 0.720515 0.302270
vt 0.719040 0.359206
vt 0.720515 0.354265
vt 0.719040 0.354265
vt 0.719040 0.349709
vt 0.708728 0.345243
vt 0.707253 0.349595
vt 0.707253 0.345243
vt 0.707252 0.340687
vt 0.708728 0.340687
vt 0.707253 0.335746
vt 0.708728 0.330624
vt 0.707253 0.330624
vt 0.708728 0.325683
vt 0.707252 0.325683
vt 0.707252 0.321127
vt 0.708728 0.321127
vt 0.707252 0.316775
vt 0.708728 0.316775
vt 0.707253 0.312219
vt 0.708728 0.307278
vt 0.707253 0.307278
vt 0.707253 0.302156
vt 0.708728 0.302156
vt 0.708728 0.359092
vt 0.707252 0.354151
vt 0.708728 0.354151
vt 0.708728 0.349595
vt 0.598347 0.043814
vt 0.600054 0.249527
vt 0.598347 0.249527
vt 0.608108 0.043814
vt 0.609583 0.249527
vt 0.608108 0.249527
vt 0.600054 0.043814
vt 0.701242 0.394265
vt 0.701710 0.392558
vt 0.702718 0.393306
vt 0.727771 0.367964
vt 0.728239 0.391876
vt 0.727232 0.392623
vt 0.701242 0.391810
vt 0.702718 0.368646
vt 0.702249 0.392558
vt 0.702718 0.366191
vt 0.701242 0.367150
vt 0.701242 0.366191
vt 0.556542 0.043814
vt 0.558249 0.249527
vt 0.556542 0.249527
vt 0.617637 0.043814
vt 0.619344 0.249527
vt 0.617637 0.249527
vt 0.659442 0.043814
vt 0.661149 0.249527
vt 0.659442 0.249527
vt 0.609583 0.043814
vt 0.728708 0.367964
vt 0.728239 0.368712
vt 0.726295 0.367964
vt 0.727232 0.367964
vt 0.726764 0.368712
vt 0.726295 0.392623
vt 0.726764 0.391876
vt 0.728708 0.392623
vt 0.727771 0.392623
vt 0.700774 0.392558
vt 0.703186 0.392558
vt 0.702718 0.391810
vt 0.702249 0.367898
vt 0.703186 0.367898
vt 0.700774 0.367898
vt 0.701710 0.367898
vt 0.701242 0.368646
vt 0.589880 0.249526
vt 0.590762 0.043814
vt 0.590762 0.249527
vt 0.627811 0.043814
vt 0.626929 0.249527
vt 0.626929 0.043814
vt 0.650975 0.249526
vt 0.651857 0.043814
vt 0.651857 0.249527
vt 0.566716 0.043814
vt 0.565834 0.249527
vt 0.565834 0.043814
vt 0.736293 0.367964
vt 0.728239 0.367216
vt 0.728239 0.366257
vt 0.633449 0.128347
vt 0.633449 0.164994
vt 0.631273 0.169430
vt 0.641569 0.162432
vt 0.641569 0.130908
vt 0.645337 0.128347
vt 0.726764 0.367216
vt 0.558249 0.043814
vt 0.718711 0.366257
vt 0.576122 0.130908
vt 0.576122 0.162433
vt 0.572354 0.164994
vt 0.584242 0.164994
vt 0.584242 0.128347
vt 0.586418 0.123911
vt 0.718711 0.392623
vt 0.726764 0.393371
vt 0.726764 0.394331
vt 0.619344 0.043814
vt 0.736293 0.394331
vt 0.728239 0.393371
vt 0.693189 0.394265
vt 0.701242 0.393306
vt 0.702718 0.394265
vt 0.710771 0.392558
vt 0.702718 0.367150
vt 0.710771 0.366191
vt 0.693189 0.367898
vt 0.731828 0.317849
vt 0.730352 0.322201
vt 0.730352 0.317849
vt 0.731828 0.322201
vt 0.731828 0.331698
vt 0.731828 0.336820
vt 0.730353 0.331698
vt 0.730353 0.341761
vt 0.730353 0.336820
vt 0.731828 0.346317
vt 0.731828 0.341761
vt 0.731828 0.350668
vt 0.730353 0.346317
vt 0.730353 0.355225
vt 0.731828 0.355225
vt 0.731828 0.360166
vt 0.730352 0.308352
vt 0.731828 0.303230
vt 0.731828 0.308352
vt 0.730352 0.313293
vt 0.731828 0.313293
vt 0.696277 0.316472
vt 0.694802 0.320823
vt 0.694802 0.316472
vt 0.696277 0.320823
vt 0.694802 0.325379
vt 0.696277 0.330320
vt 0.696277 0.325379
vt 0.696277 0.335443
vt 0.694802 0.330320
vt 0.694802 0.340383
vt 0.694802 0.335443
vt 0.694802 0.344940
vt 0.696277 0.340383
vt 0.696277 0.344940
vt 0.696277 0.349291
vt 0.694802 0.353847
vt 0.696277 0.353847
vt 0.696277 0.358789
vt 0.694802 0.306974
vt 0.696277 0.301852
vt 0.696277 0.306974
vt 0.694802 0.311915
vt 0.696277 0.311915
vt 0.719040 0.345358
vt 0.720515 0.349709
vt 0.719040 0.349709
vt 0.720515 0.340801
vt 0.719040 0.340801
vt 0.720515 0.335860
vt 0.719040 0.335860
vt 0.719040 0.330738
vt 0.720515 0.330738
vt 0.719040 0.325797
vt 0.720515 0.325797
vt 0.720515 0.321240
vt 0.719040 0.321240
vt 0.720515 0.316889
vt 0.719040 0.316889
vt 0.719040 0.312333
vt 0.720515 0.312333
vt 0.720515 0.307392
vt 0.719040 0.307392
vt 0.720515 0.302269
vt 0.719040 0.302269
vt 0.720515 0.354265
vt 0.719040 0.359206
vt 0.719040 0.354265
vt 0.708728 0.345243
vt 0.707252 0.349595
vt 0.708728 0.349595
vt 0.707252 0.340687
vt 0.708728 0.340687
vt 0.708728 0.335746
vt 0.707252 0.335746
vt 0.708728 0.330624
vt 0.707252 0.330624
vt 0.708728 0.325683
vt 0.708728 0.321126
vt 0.707252 0.321126
vt 0.707252 0.316775
vt 0.708728 0.316775
vt 0.708728 0.312218
vt 0.707252 0.312218
vt 0.707252 0.307277
vt 0.708728 0.307277
vt 0.707252 0.302155
vt 0.708728 0.302155
vt 0.708728 0.354151
vt 0.707252 0.359093
vt 0.708728 0.359093
vt 0.707252 0.354151
vt 0.619344 0.249527
vt 0.609583 0.249527
vt 0.617637 0.249527
vt 0.701242 0.394265
vt 0.701711 0.392558
vt 0.702718 0.393305
vt 0.727771 0.367963
vt 0.728240 0.391876
vt 0.727232 0.392624
vt 0.701242 0.391810
vt 0.702718 0.368646
vt 0.702249 0.392558
vt 0.702718 0.366191
vt 0.701242 0.367151
vt 0.701242 0.366191
vt 0.661149 0.249526
vt 0.659442 0.043814
vt 0.661149 0.043814
vt 0.600054 0.249527
vt 0.558249 0.249527
vt 0.608108 0.249527
vt 0.728708 0.367963
vt 0.728240 0.368711
vt 0.726296 0.367963
vt 0.727232 0.367963
vt 0.726764 0.368711
vt 0.726296 0.392624
vt 0.726764 0.391876
vt 0.728708 0.392624
vt 0.727771 0.392624
vt 0.700774 0.392558
vt 0.703186 0.392558
vt 0.702718 0.391810
vt 0.702249 0.367898
vt 0.703186 0.367898
vt 0.700774 0.367898
vt 0.701711 0.367898
vt 0.701242 0.368646
vt 0.627811 0.043814
vt 0.626929 0.249527
vt 0.626929 0.043814
vt 0.590762 0.043814
vt 0.590762 0.249527
vt 0.565834 0.249527
vt 0.650975 0.249526
vt 0.651857 0.043814
vt 0.651857 0.249526
vt 0.736293 0.367963
vt 0.728240 0.367216
vt 0.728240 0.366256
vt 0.586418 0.123911
vt 0.576122 0.130908
vt 0.572354 0.164994
vt 0.726764 0.367216
vt 0.659442 0.249526
vt 0.718710 0.366256
vt 0.633449 0.164994
vt 0.631273 0.169430
vt 0.718710 0.392624
vt 0.726764 0.393371
vt 0.726764 0.394331
vt 0.598347 0.249527
vt 0.736293 0.394331
vt 0.728240 0.393371
vt 0.693189 0.394265
vt 0.701242 0.393305
vt 0.702718 0.394265
vt 0.710771 0.392558
vt 0.702718 0.367151
vt 0.710771 0.366191
vt 0.693189 0.367898
vt 0.730353 0.322200
vt 0.731828 0.326757
vt 0.730353 0.326757
vt 0.730353 0.331698
vt 0.731828 0.341761
vt 0.730353 0.336820
vt 0.731828 0.346317
vt 0.730353 0.341761
vt 0.731828 0.350668
vt 0.730353 0.355225
vt 0.731828 0.355225
vt 0.730353 0.308352
vt 0.731828 0.303230
vt 0.731828 0.308352
vt 0.731828 0.313293
vt 0.730353 0.313293
vt 0.696277 0.316472
vt 0.694802 0.316472
vt 0.694802 0.325379
vt 0.696277 0.325379
vt 0.694802 0.330320
vt 0.696277 0.335442
vt 0.696277 0.330320
vt 0.694802 0.335442
vt 0.696277 0.344940
vt 0.694802 0.340383
vt 0.696277 0.349291
vt 0.694802 0.344940
vt 0.696277 0.353847
vt 0.694802 0.349291
vt 0.696277 0.358788
vt 0.694802 0.353847
vt 0.694802 0.306974
vt 0.696277 0.301852
vt 0.696277 0.306974
vt 0.694802 0.311915
vt 0.696277 0.311915
vt 0.719040 0.345357
vt 0.720515 0.349709
vt 0.719040 0.349709
vt 0.720515 0.340801
vt 0.719040 0.340801
vt 0.719040 0.335860
vt 0.720515 0.335860
vt 0.719040 0.330738
vt 0.720515 0.330738
vt 0.720515 0.325797
vt 0.719040 0.325797
vt 0.720515 0.321241
vt 0.719040 0.321241
vt 0.720515 0.316889
vt 0.719040 0.316889
vt 0.719040 0.312333
vt 0.720515 0.312333
vt 0.720515 0.307392
vt 0.719040 0.307392
vt 0.720515 0.302270
vt 0.719040 0.302270
vt 0.720515 0.354265
vt 0.719040 0.359206
vt 0.719040 0.354265
vt 0.707252 0.345243
vt 0.708728 0.349594
vt 0.707252 0.349594
vt 0.708728 0.340687
vt 0.707252 0.340687
vt 0.707252 0.335746
vt 0.708728 0.335746
vt 0.707252 0.330624
vt 0.708728 0.330624
vt 0.708728 0.325683
vt 0.707252 0.325683
vt 0.708728 0.321126
vt 0.707252 0.321126
vt 0.708728 0.316775
vt 0.707252 0.316775
vt 0.708728 0.312219
vt 0.707252 0.312219
vt 0.708728 0.307278
vt 0.707252 0.307278
vt 0.708728 0.302156
vt 0.707252 0.302156
vt 0.707252 0.354150
vt 0.708728 0.359091
vt 0.707252 0.359091
vt 0.708728 0.354150
vt 0.702718 0.391809
vt 0.556542 0.043814
vt 0.728240 0.367216
vt 0.726764 0.393371
vt 0.589880 0.043814
vt 0.566716 0.249527
vt 0.736293 0.366257
vt 0.580474 0.058977
vt 0.584242 0.061539
vt 0.586418 0.065975
vt 0.584242 0.231802
vt 0.580474 0.234363
vt 0.586418 0.227366
vt 0.586418 0.071097
vt 0.586418 0.222244
vt 0.580474 0.078094
vt 0.576123 0.078094
vt 0.576123 0.111791
vt 0.580474 0.111791
vt 0.584242 0.075533
vt 0.584242 0.114353
vt 0.576122 0.181549
vt 0.576122 0.215247
vt 0.580474 0.215247
vt 0.580474 0.181549
vt 0.584242 0.217808
vt 0.584242 0.178988
vt 0.586418 0.174552
vt 0.586418 0.118789
vt 0.586418 0.123911
vt 0.580474 0.130908
vt 0.580474 0.162433
vt 0.576122 0.234364
vt 0.572354 0.231802
vt 0.576123 0.058978
vt 0.570178 0.227366
vt 0.572354 0.061539
vt 0.570179 0.065975
vt 0.570178 0.222244
vt 0.570179 0.071097
vt 0.572354 0.075533
vt 0.572354 0.114353
vt 0.572354 0.217808
vt 0.572354 0.178988
vt 0.570178 0.118789
vt 0.570178 0.174552
vt 0.570178 0.123911
vt 0.570178 0.169430
vt 0.572354 0.164994
vt 0.718711 0.367964
vt 0.637217 0.058977
vt 0.641569 0.058977
vt 0.645337 0.061539
vt 0.637217 0.234363
vt 0.641568 0.234363
vt 0.647513 0.065975
vt 0.645337 0.231802
vt 0.647512 0.227366
vt 0.647513 0.071097
vt 0.647512 0.222244
vt 0.641568 0.181549
vt 0.641568 0.215246
vt 0.645337 0.217808
vt 0.645337 0.178988
vt 0.645337 0.075533
vt 0.641569 0.078094
vt 0.641569 0.111791
vt 0.645337 0.114353
vt 0.647513 0.174552
vt 0.647513 0.118789
vt 0.647513 0.169430
vt 0.647513 0.123911
vt 0.645337 0.128347
vt 0.637217 0.130908
vt 0.637217 0.162433
vt 0.633449 0.231802
vt 0.631273 0.227366
vt 0.633449 0.061539
vt 0.631273 0.065975
vt 0.631273 0.222244
vt 0.631273 0.071097
vt 0.637217 0.215246
vt 0.637217 0.181549
vt 0.633449 0.217808
vt 0.633449 0.178988
vt 0.637217 0.078094
vt 0.637217 0.111791
vt 0.633449 0.075533
vt 0.633449 0.114352
vt 0.631273 0.118789
vt 0.631273 0.174552
vt 0.631273 0.169430
vt 0.718711 0.394330
vt 0.736293 0.392623
vt 0.710771 0.394264
vt 0.693189 0.366191
vt 0.730353 0.331698
vt 0.731828 0.303230
vt 0.694802 0.316472
vt 0.694802 0.335442
vt 0.694802 0.301852
vt 0.719040 0.325797
vt 0.719040 0.316890
vt 0.720515 0.359206
vt 0.708728 0.335746
vt 0.708728 0.312219
vt 0.707253 0.359092
vt 0.589880 0.043814
vt 0.627811 0.249526
vt 0.650975 0.043814
vt 0.566716 0.249527
vt 0.736293 0.366257
vt 0.633449 0.231802
vt 0.637217 0.234363
vt 0.637217 0.058977
vt 0.633449 0.061538
vt 0.631273 0.065975
vt 0.631273 0.227366
vt 0.631273 0.222244
vt 0.631273 0.071097
vt 0.637217 0.078094
vt 0.641569 0.078094
vt 0.641569 0.111791
vt 0.637217 0.111791
vt 0.633449 0.075533
vt 0.633449 0.114352
vt 0.641568 0.181549
vt 0.641568 0.215247
vt 0.637217 0.215246
vt 0.637217 0.181549
vt 0.633449 0.217808
vt 0.633449 0.178988
vt 0.631273 0.174552
vt 0.631273 0.118788
vt 0.631273 0.123911
vt 0.637217 0.130908
vt 0.637217 0.162433
vt 0.641569 0.058977
vt 0.641568 0.234363
vt 0.645337 0.061538
vt 0.645337 0.231802
vt 0.647512 0.227366
vt 0.647513 0.065974
vt 0.647513 0.071097
vt 0.647512 0.222244
vt 0.645337 0.217808
vt 0.645337 0.178988
vt 0.645337 0.075533
vt 0.645337 0.114352
vt 0.647513 0.118789
vt 0.647512 0.174552
vt 0.647513 0.123911
vt 0.647513 0.169430
vt 0.645337 0.164994
vt 0.726764 0.366257
vt 0.718711 0.367964
vt 0.576123 0.234363
vt 0.580474 0.234363
vt 0.580474 0.058977
vt 0.576123 0.058977
vt 0.572354 0.231802
vt 0.572354 0.061539
vt 0.570178 0.065975
vt 0.570178 0.227366
vt 0.570178 0.222244
vt 0.570179 0.071097
vt 0.572354 0.075533
vt 0.576123 0.078094
vt 0.576123 0.111791
vt 0.572354 0.114353
vt 0.576123 0.181549
vt 0.576123 0.215247
vt 0.572354 0.217808
vt 0.572354 0.178988
vt 0.570178 0.174552
vt 0.570178 0.118789
vt 0.570178 0.123911
vt 0.572354 0.128347
vt 0.580474 0.130908
vt 0.580474 0.162433
vt 0.584242 0.061539
vt 0.584242 0.231802
vt 0.586418 0.227366
vt 0.586418 0.065975
vt 0.586418 0.071097
vt 0.586418 0.222244
vt 0.580474 0.215247
vt 0.580474 0.181549
vt 0.584242 0.217808
vt 0.584242 0.178988
vt 0.580474 0.078094
vt 0.580474 0.111792
vt 0.584242 0.075533
vt 0.584242 0.114353
vt 0.586418 0.118789
vt 0.586418 0.174552
vt 0.586418 0.169430
vt 0.718711 0.394331
vt 0.736293 0.392623
vt 0.728239 0.394331
vt 0.693189 0.392558
vt 0.710771 0.394265
vt 0.710771 0.367898
vt 0.693189 0.366191
vt 0.730353 0.350668
vt 0.730353 0.360166
vt 0.730352 0.303230
vt 0.694802 0.349291
vt 0.694802 0.358789
vt 0.694802 0.301852
vt 0.720515 0.345358
vt 0.720515 0.359206
vt 0.707252 0.345243
vt 0.556542 0.249527
vt 0.627811 0.249527
vt 0.589880 0.043814
vt 0.566716 0.249527
vt 0.736293 0.366256
vt 0.584242 0.061539
vt 0.586418 0.227366
vt 0.586418 0.065975
vt 0.586418 0.071097
vt 0.586418 0.222244
vt 0.580474 0.215246
vt 0.584242 0.217808
vt 0.576123 0.111791
vt 0.580474 0.078094
vt 0.580474 0.111791
vt 0.584242 0.114353
vt 0.586418 0.118789
vt 0.586418 0.174552
vt 0.586418 0.169430
vt 0.580474 0.162433
vt 0.580474 0.130908
vt 0.576122 0.234363
vt 0.572354 0.231802
vt 0.572354 0.061539
vt 0.570179 0.065975
vt 0.570179 0.071097
vt 0.572354 0.075533
vt 0.572354 0.114352
vt 0.572354 0.217808
vt 0.572354 0.178988
vt 0.570178 0.118789
vt 0.570178 0.123911
vt 0.572354 0.128347
vt 0.726764 0.366256
vt 0.718710 0.367963
vt 0.641569 0.058977
vt 0.637217 0.234363
vt 0.641568 0.234363
vt 0.645337 0.061538
vt 0.645337 0.231802
vt 0.647512 0.227366
vt 0.647513 0.071097
vt 0.647512 0.222244
vt 0.645337 0.217808
vt 0.641568 0.215246
vt 0.641568 0.181549
vt 0.645337 0.178988
vt 0.641569 0.111791
vt 0.645337 0.075533
vt 0.645337 0.114352
vt 0.647513 0.174552
vt 0.647513 0.169430
vt 0.645337 0.164994
vt 0.637217 0.162432
vt 0.637217 0.130908
vt 0.633449 0.231802
vt 0.631273 0.065974
vt 0.631273 0.227366
vt 0.631273 0.222244
vt 0.631273 0.071097
vt 0.637217 0.078094
vt 0.633449 0.075533
vt 0.633449 0.114352
vt 0.637217 0.215246
vt 0.637217 0.181549
vt 0.633449 0.217808
vt 0.633449 0.178988
vt 0.631273 0.174552
vt 0.631273 0.118789
vt 0.718710 0.394331
vt 0.736293 0.392624
vt 0.728240 0.394331
vt 0.693189 0.392558
vt 0.710771 0.394265
vt 0.710771 0.367898
vt 0.693189 0.366191
vt 0.730353 0.303230
vt 0.694802 0.358788
vt 0.694802 0.301852
vt 0.720515 0.345357
vt 0.720515 0.359206
vt 0.708728 0.345243
s 0
f 98/70/38 116/71/38 104/72/38
f 106/73/39 102/74/39 105/75/39
f 105/75/39 115/76/39 98/70/39
f 140/77/40 136/78/40 106/79/40
f 130/80/41 120/81/41 122/82/41
f 139/83/40 141/84/40 133/85/40
f 148/86/40 108/87/40 107/88/40
f 103/89/38 110/90/38 97/91/38
f 94/92/42 113/93/42 114/94/42
f 100/95/42 112/96/42 111/97/42
f 94/92/39 101/98/39 106/73/39
f 118/99/41 120/81/41 117/100/41
f 121/101/43 123/102/43 124/103/43
f 126/104/43 128/105/43 125/106/43
f 129/107/41 131/108/41 132/109/41
f 134/110/40 136/78/40 133/85/40
f 137/111/44 139/83/44 140/77/44
f 142/112/44 144/113/44 141/84/44
f 145/114/40 147/115/40 148/86/40
f 137/116/45 125/117/45 138/118/45
f 134/119/46 130/120/46 129/121/46
f 118/122/47 146/123/47 145/124/47
f 121/125/48 141/126/48 122/127/48
f 100/95/39 118/122/39 145/124/39
f 96/128/41 118/99/41 111/129/41
f 177/130/42 178/131/42 182/132/42
f 169/133/42 165/134/42 166/135/42
f 124/103/41 120/81/41 96/128/41
f 142/136/39 109/137/39 103/89/39
f 121/101/41 95/138/41 110/139/41
f 224/140/38 227/141/38 226/142/38
f 216/143/38 212/144/38 211/145/38
f 104/72/49 126/146/49 137/116/49
f 102/147/41 126/104/41 116/148/41
f 134/119/49 113/93/49 99/149/49
f 129/107/41 101/150/41 114/151/41
f 146/152/40 144/113/40 147/115/40
f 135/153/40 99/154/40 94/155/40
f 104/156/40 140/77/40 105/157/40
f 147/115/40 143/158/40 148/86/40
f 143/158/40 103/159/40 97/160/40
f 100/161/40 148/86/40 107/88/40
f 132/109/41 128/105/41 102/147/41
f 191/162/40 238/163/40 190/164/40
f 190/164/50 241/165/50 193/166/50
f 241/165/51 192/167/51 193/166/51
f 192/167/39 234/168/39 186/169/39
f 186/169/52 235/170/52 187/171/52
f 187/171/53 231/172/53 184/173/53
f 185/174/41 231/172/41 233/175/41
f 185/174/54 236/176/54 188/177/54
f 188/177/55 243/178/55 195/179/55
f 189/180/49 243/181/49 237/182/49
f 189/180/56 242/183/56 194/184/56
f 194/184/57 239/185/57 191/162/57
f 196/186/40 232/187/40 183/188/40
f 183/188/50 229/189/50 171/190/50
f 229/189/51 170/191/51 171/190/51
f 228/192/39 172/193/39 170/191/39
f 172/193/52 226/194/52 168/195/52
f 168/195/53 227/196/53 169/197/53
f 179/198/41 227/196/41 214/199/41
f 178/200/54 214/199/54 216/201/54
f 178/200/55 219/202/55 182/203/55
f 182/204/49 217/205/49 180/206/49
f 180/206/56 218/207/56 181/208/56
f 218/207/57 196/186/57 181/208/57
f 198/209/41 149/210/41 150/211/41
f 198/209/53 151/212/53 199/213/53
f 152/214/52 199/213/52 151/212/52
f 155/215/39 200/216/39 152/214/39
f 160/217/51 203/218/51 155/215/51
f 205/219/50 160/217/50 158/220/50
f 159/221/40 205/219/40 158/220/40
f 208/222/57 159/221/57 161/223/57
f 204/224/56 161/223/56 156/225/56
f 202/226/49 156/225/49 154/227/49
f 202/228/55 153/229/55 201/230/55
f 197/231/54 153/229/54 149/210/54
f 220/232/41 162/233/41 157/234/41
f 220/232/53 163/235/53 222/236/53
f 167/237/52 222/236/52 163/235/52
f 223/238/39 167/237/39 164/239/39
f 225/240/51 164/239/51 166/241/51
f 165/242/50 225/240/50 166/241/50
f 224/243/40 176/244/40 215/245/40
f 177/246/57 215/245/57 176/244/57
f 211/247/56 177/246/56 175/248/56
f 211/247/49 174/249/49 213/250/49
f 213/251/55 173/252/55 209/253/55
f 173/252/54 210/254/54 209/253/54
f 268/255/42 250/256/42 256/257/42
f 254/258/58 258/259/58 257/260/58
f 267/261/58 257/260/58 250/256/58
f 258/262/59 288/263/59 292/264/59
f 272/265/60 282/266/60 280/267/60
f 285/268/59 293/269/59 291/270/59
f 260/271/59 300/272/59 259/273/59
f 262/274/42 255/275/42 249/276/42
f 266/277/38 251/278/38 246/279/38
f 263/280/38 245/281/38 252/282/38
f 253/283/58 246/279/58 258/259/58
f 272/265/60 270/284/60 269/285/60
f 273/286/60 275/287/60 274/288/60
f 280/267/60 278/289/60 277/290/60
f 281/291/60 283/292/60 282/266/60
f 288/263/59 286/293/59 285/268/59
f 289/294/59 291/270/59 290/295/59
f 296/296/59 294/297/59 293/269/59
f 297/298/59 299/299/59 298/300/59
f 290/301/61 278/302/61 289/303/61
f 282/304/62 286/305/62 281/306/62
f 298/307/63 270/308/63 297/309/63
f 274/310/64 294/311/64 273/312/64
f 270/308/58 252/282/58 297/309/58
f 263/313/60 271/314/60 248/315/60
f 330/316/38 329/317/38 327/318/38
f 317/319/38 321/320/38 320/321/38
f 248/315/60 272/265/60 276/322/60
f 261/323/58 294/311/58 255/275/58
f 262/324/60 276/322/60 273/286/60
f 379/325/42 376/326/42 377/327/42
f 364/328/42 368/329/42 371/330/42
f 278/302/65 256/257/65 289/303/65
f 268/331/60 279/332/60 254/333/60
f 265/334/65 286/305/65 251/278/65
f 266/335/60 284/336/60 281/291/60
f 299/299/59 293/269/59 298/300/59
f 246/337/59 286/293/59 287/338/59
f 257/339/59 289/294/59 256/340/59
f 295/341/59 299/299/59 300/272/59
f 249/342/59 294/297/59 295/341/59
f 259/273/59 297/298/59 252/343/59
f 254/333/60 280/267/60 284/336/60
f 343/344/59 390/345/59 391/346/59
f 345/166/66 390/345/66 342/347/66
f 344/348/67 393/165/67 345/166/67
f 338/349/58 392/350/58 344/348/58
f 338/349/68 387/351/68 386/352/68
f 336/353/69 387/351/69 339/354/69
f 337/355/60 383/356/60 336/353/60
f 388/357/70 337/355/70 340/358/70
f 347/359/71 388/357/71 340/358/71
f 389/360/65 347/361/65 341/362/65
f 394/363/72 341/362/72 346/364/72
f 343/344/73 394/363/73 346/364/73
f 348/365/59 384/366/59 396/367/59
f 335/368/66 381/369/66 384/366/66
f 322/370/67 381/369/67 323/371/67
f 324/372/58 380/373/58 322/370/58
f 324/372/68 378/374/68 382/375/68
f 379/376/69 320/377/69 321/378/69
f 331/379/60 379/376/60 321/378/60
f 368/380/70 331/379/70 330/381/70
f 334/382/71 368/380/71 330/381/71
f 369/383/65 334/384/65 332/385/65
f 370/386/72 332/385/72 333/387/72
f 333/387/73 396/367/73 370/386/73
f 350/388/60 301/389/60 349/390/60
f 303/391/69 350/388/69 351/392/69
f 304/393/68 351/392/68 352/394/68
f 304/393/58 355/395/58 307/396/58
f 307/396/67 359/397/67 312/398/67
f 310/399/66 359/397/66 357/400/66
f 311/401/59 357/400/59 358/402/59
f 311/401/73 360/403/73 313/404/73
f 308/405/72 360/403/72 356/406/72
f 306/407/65 356/406/65 354/408/65
f 305/409/71 354/410/71 353/411/71
f 301/389/70 353/411/70 349/390/70
f 372/412/60 314/413/60 362/414/60
f 315/415/69 372/412/69 374/416/69
f 315/415/68 373/417/68 319/418/68
f 319/418/58 375/419/58 316/420/58
f 318/241/67 375/419/67 377/421/67
f 318/241/66 376/422/66 317/423/66
f 328/424/59 376/422/59 367/425/59
f 328/424/73 364/426/73 329/427/73
f 327/428/72 364/426/72 363/429/72
f 326/430/65 363/429/65 365/431/65
f 361/432/71 326/433/71 365/434/71
f 361/432/70 314/413/70 325/435/70
f 420/436/42 402/277/42 408/334/42
f 406/437/58 410/258/58 409/283/58
f 419/438/58 409/283/58 402/277/58
f 410/439/59 440/440/59 444/441/59
f 424/442/60 434/443/60 432/444/60
f 437/445/59 445/446/59 443/447/59
f 412/448/59 452/449/59 411/450/59
f 414/451/42 407/452/42 401/453/42
f 418/454/38 403/255/38 398/261/38
f 415/455/38 397/274/38 404/323/38
f 405/456/58 398/261/58 410/258/58
f 424/442/60 422/457/60 421/458/60
f 425/459/60 427/460/60 426/461/60
f 432/444/60 430/462/60 429/463/60
f 433/464/60 435/465/60 434/443/60
f 440/440/59 438/466/59 437/445/59
f 441/467/59 443/447/59 442/468/59
f 448/469/59 446/470/59 445/446/59
f 449/471/59 451/472/59 450/473/59
f 442/474/61 430/475/61 441/476/61
f 434/120/62 438/477/62 433/478/62
f 450/310/63 422/479/63 449/312/63
f 426/480/64 446/481/64 425/482/64
f 422/479/58 404/323/58 449/312/58
f 415/483/60 423/484/60 400/485/60
f 482/328/38 481/329/38 479/486/38
f 469/487/38 473/326/38 472/488/38
f 400/485/60 424/442/60 428/489/60
f 413/490/58 446/481/58 407/452/58
f 414/491/60 428/489/60 425/459/60
f 531/319/42 528/320/42 529/321/42
f 516/316/42 520/492/42 523/493/42
f 430/475/65 408/334/65 441/476/65
f 420/494/60 431/495/60 406/496/60
f 417/497/65 438/477/65 403/255/65
f 418/498/60 436/499/60 433/464/60
f 451/472/59 445/446/59 450/473/59
f 398/500/59 438/466/59 439/501/59
f 409/502/59 441/467/59 408/503/59
f 447/504/59 451/472/59 452/449/59
f 401/505/59 446/470/59 447/504/59
f 411/450/59 449/471/59 404/506/59
f 406/496/60 432/444/60 436/499/60
f 495/162/59 542/507/59 543/185/59
f 497/508/66 542/507/66 494/164/66
f 496/348/67 545/509/67 497/508/67
f 490/349/58 544/510/58 496/348/58
f 491/511/68 538/512/68 490/349/68
f 488/513/69 539/514/69 491/511/69
f 489/515/60 535/356/60 488/513/60
f 540/516/70 489/515/70 492/517/70
f 547/178/71 492/517/71 499/179/71
f 541/518/65 499/519/65 493/520/65
f 498/521/72 541/518/72 493/520/72
f 495/162/73 546/522/73 498/521/73
f 500/523/59 536/187/59 548/524/59
f 487/188/66 533/525/66 536/187/66
f 475/526/67 532/527/67 533/525/67
f 476/528/58 532/527/58 474/529/58
f 472/195/68 534/530/68 476/528/68
f 473/531/69 530/532/69 472/195/69
f 483/533/60 531/534/60 473/531/60
f 482/535/70 518/536/70 483/533/70
f 486/537/71 520/538/71 482/535/71
f 521/539/65 486/540/65 484/541/65
f 522/542/72 484/541/72 485/543/72
f 485/543/73 548/524/73 522/542/73
f 502/544/60 453/545/60 501/546/60
f 455/547/69 502/544/69 503/548/69
f 455/547/68 504/549/68 456/550/68
f 456/550/58 507/551/58 459/552/58
f 464/553/67 507/551/67 511/554/67
f 462/555/66 511/554/66 509/556/66
f 463/557/59 509/556/59 510/558/59
f 463/557/73 512/559/73 465/560/73
f 460/561/72 512/559/72 508/562/72
f 458/563/65 508/562/65 506/564/65
f 457/565/71 506/566/71 505/567/71
f 453/545/70 505/567/70 501/546/70
f 524/568/60 466/569/60 514/570/60
f 467/571/69 524/568/69 526/572/69
f 467/571/68 525/573/68 471/574/68
f 471/574/58 527/575/58 468/576/58
f 470/577/67 527/575/67 529/578/67
f 469/579/66 529/578/66 528/580/66
f 480/581/59 528/580/59 519/582/59
f 481/583/73 519/582/73 516/584/73
f 479/585/72 516/584/72 515/586/72
f 478/587/65 515/586/65 517/588/65
f 513/589/71 478/590/71 517/591/71
f 513/589/70 466/569/70 477/592/70
f 98/70/38 115/76/38 116/71/38
f 106/73/39 101/98/39 102/74/39
f 105/75/39 102/74/39 115/76/39
f 106/79/44 105/157/44 140/77/44
f 140/77/40 139/83/40 136/78/40
f 136/78/44 135/153/44 106/79/44
f 122/82/41 125/106/41 128/105/41
f 128/105/41 131/108/41 130/80/41
f 130/80/41 117/100/41 120/81/41
f 120/81/43 123/102/43 122/82/43
f 122/82/41 128/105/41 130/80/41
f 133/85/44 136/78/44 139/83/44
f 139/83/40 138/593/40 141/84/40
f 141/84/40 146/152/40 133/85/40
f 148/86/44 143/158/44 108/87/44
f 103/89/38 109/137/38 110/90/38
f 94/92/42 99/149/42 113/93/42
f 100/95/42 93/594/42 112/96/42
f 94/92/39 114/94/39 101/98/39
f 118/99/43 119/595/43 120/81/43
f 121/101/41 122/82/41 123/102/41
f 126/104/41 127/596/41 128/105/41
f 129/107/43 130/80/43 131/108/43
f 134/110/44 135/153/44 136/78/44
f 137/111/40 138/593/40 139/83/40
f 142/112/40 143/158/40 144/113/40
f 145/114/44 146/152/44 147/115/44
f 137/116/45 126/146/45 125/117/45
f 134/119/46 133/597/46 130/120/46
f 118/122/47 117/598/47 146/123/47
f 121/125/48 142/136/48 141/126/48
f 100/95/39 111/97/39 118/122/39
f 111/129/41 112/599/41 96/128/41
f 96/128/43 119/595/43 118/99/43
f 133/597/42 149/600/42 153/601/42
f 133/597/42 153/601/42 154/602/42
f 194/603/42 191/604/42 130/120/42
f 189/605/42 194/603/42 130/120/42
f 130/120/42 133/597/42 154/602/42
f 130/120/42 154/602/42 156/606/42
f 195/607/42 189/605/42 130/120/42
f 159/608/42 158/609/42 157/610/42
f 159/608/42 157/610/42 162/611/42
f 161/612/42 159/608/42 162/611/42
f 161/612/42 162/611/42 173/613/42
f 183/614/42 184/615/42 185/616/42
f 196/617/42 183/614/42 185/616/42
f 196/617/42 185/616/42 188/618/42
f 181/619/42 196/617/42 188/618/42
f 181/619/42 188/618/42 195/607/42
f 180/620/42 181/619/42 195/607/42
f 156/606/42 161/612/42 173/613/42
f 156/606/42 173/613/42 174/621/42
f 180/620/42 195/607/42 130/120/42
f 182/132/42 180/620/42 130/120/42
f 130/120/42 156/606/42 174/621/42
f 130/120/42 174/621/42 175/622/42
f 182/132/42 130/120/42 175/622/42
f 177/130/42 176/623/42 179/624/42
f 182/132/42 175/622/42 177/130/42
f 177/130/42 179/624/42 178/131/42
f 130/120/42 191/604/42 190/625/42
f 130/120/42 190/625/42 193/626/42
f 149/600/42 133/597/42 146/123/42
f 150/627/42 149/600/42 146/123/42
f 117/598/42 130/120/42 193/626/42
f 117/598/42 193/626/42 192/628/42
f 151/629/42 150/627/42 146/123/42
f 152/630/42 151/629/42 146/123/42
f 146/123/42 117/598/42 192/628/42
f 146/123/42 192/628/42 186/631/42
f 155/632/42 152/630/42 146/123/42
f 157/610/42 158/609/42 160/633/42
f 157/610/42 160/633/42 155/632/42
f 163/634/42 157/610/42 155/632/42
f 187/635/42 184/615/42 183/614/42
f 187/635/42 183/614/42 171/636/42
f 163/634/42 155/632/42 146/123/42
f 167/637/42 163/634/42 146/123/42
f 186/631/42 187/635/42 171/636/42
f 186/631/42 171/636/42 170/638/42
f 164/639/42 167/637/42 146/123/42
f 146/123/42 186/631/42 170/638/42
f 146/123/42 170/638/42 172/640/42
f 164/639/42 146/123/42 172/640/42
f 164/639/42 172/640/42 168/641/42
f 166/135/42 164/639/42 168/641/42
f 169/133/42 179/624/42 176/623/42
f 166/135/42 168/641/42 169/133/42
f 169/133/42 176/623/42 165/134/42
f 96/128/43 95/138/43 124/103/43
f 124/103/41 123/102/41 120/81/41
f 120/81/43 119/595/43 96/128/43
f 142/136/39 121/125/39 109/137/39
f 110/139/41 109/642/41 121/101/41
f 121/101/43 124/103/43 95/138/43
f 138/118/38 197/643/38 198/644/38
f 138/118/38 198/644/38 199/645/38
f 239/646/38 125/117/38 122/127/38
f 238/647/38 239/646/38 122/127/38
f 141/126/38 138/118/38 199/645/38
f 141/126/38 199/645/38 200/648/38
f 241/649/38 238/647/38 122/127/38
f 240/650/38 241/649/38 122/127/38
f 122/127/38 141/126/38 200/648/38
f 122/127/38 200/648/38 203/651/38
f 234/652/38 240/650/38 122/127/38
f 232/653/38 231/654/38 235/655/38
f 232/653/38 235/655/38 234/652/38
f 229/656/38 232/653/38 234/652/38
f 207/657/38 205/658/38 220/659/38
f 207/657/38 220/659/38 222/660/38
f 229/656/38 234/652/38 122/127/38
f 228/661/38 229/656/38 122/127/38
f 203/651/38 207/657/38 222/660/38
f 203/651/38 222/660/38 221/662/38
f 230/663/38 228/661/38 122/127/38
f 122/127/38 203/651/38 221/662/38
f 122/127/38 221/662/38 223/664/38
f 230/663/38 122/127/38 223/664/38
f 230/663/38 223/664/38 225/665/38
f 226/142/38 230/663/38 225/665/38
f 224/140/38 215/666/38 214/667/38
f 226/142/38 225/665/38 224/140/38
f 224/140/38 214/667/38 227/141/38
f 125/117/38 239/646/38 242/668/38
f 125/117/38 242/668/38 237/669/38
f 201/670/38 197/643/38 138/118/38
f 202/671/38 201/670/38 138/118/38
f 138/118/38 125/117/38 237/669/38
f 138/118/38 237/669/38 243/672/38
f 204/673/38 202/671/38 138/118/38
f 233/674/38 231/654/38 232/653/38
f 233/674/38 232/653/38 244/675/38
f 236/676/38 233/674/38 244/675/38
f 236/676/38 244/675/38 218/677/38
f 220/659/38 205/658/38 206/678/38
f 210/679/38 220/659/38 206/678/38
f 210/679/38 206/678/38 208/680/38
f 209/681/38 210/679/38 208/680/38
f 209/681/38 208/680/38 204/673/38
f 213/682/38 209/681/38 204/673/38
f 243/672/38 236/676/38 218/677/38
f 243/672/38 218/677/38 217/683/38
f 213/682/38 204/673/38 138/118/38
f 211/145/38 213/682/38 138/118/38
f 138/118/38 243/672/38 217/683/38
f 138/118/38 217/683/38 219/684/38
f 211/145/38 138/118/38 219/684/38
f 216/143/38 214/667/38 215/666/38
f 211/145/38 219/684/38 216/143/38
f 216/143/38 215/666/38 212/144/38
f 104/72/49 116/71/49 126/146/49
f 116/148/41 115/685/41 102/147/41
f 102/147/43 127/596/43 126/104/43
f 134/119/49 129/121/49 113/93/49
f 114/151/41 113/686/41 129/107/41
f 129/107/43 132/109/43 101/150/43
f 146/152/44 141/84/44 144/113/44
f 94/155/40 106/79/40 135/153/40
f 135/153/44 134/110/44 99/154/44
f 105/157/40 98/687/40 104/156/40
f 104/156/44 137/111/44 140/77/44
f 147/115/44 144/113/44 143/158/44
f 97/160/40 108/87/40 143/158/40
f 143/158/40 142/112/40 103/159/40
f 107/88/40 93/688/40 100/161/40
f 100/161/40 145/114/40 148/86/40
f 102/147/41 101/150/41 132/109/41
f 132/109/43 131/108/43 128/105/43
f 128/105/43 127/596/43 102/147/43
f 191/162/40 239/185/40 238/163/40
f 190/164/50 238/163/50 241/165/50
f 241/165/51 240/689/51 192/167/51
f 192/167/39 240/689/39 234/168/39
f 186/169/52 234/168/52 235/170/52
f 187/171/53 235/170/53 231/172/53
f 185/174/41 184/173/41 231/172/41
f 185/174/54 233/175/54 236/176/54
f 188/177/55 236/176/55 243/178/55
f 189/180/49 195/690/49 243/181/49
f 189/180/56 237/182/56 242/183/56
f 194/184/57 242/183/57 239/185/57
f 196/186/40 244/691/40 232/187/40
f 183/188/50 232/187/50 229/189/50
f 229/189/51 228/192/51 170/191/51
f 228/192/39 230/692/39 172/193/39
f 172/193/52 230/692/52 226/194/52
f 168/195/53 226/194/53 227/196/53
f 179/198/41 169/197/41 227/196/41
f 178/200/54 179/198/54 214/199/54
f 178/200/55 216/201/55 219/202/55
f 182/204/49 219/693/49 217/205/49
f 180/206/56 217/205/56 218/207/56
f 218/207/57 244/691/57 196/186/57
f 198/209/41 197/231/41 149/210/41
f 198/209/53 150/211/53 151/212/53
f 152/214/52 200/216/52 199/213/52
f 155/215/39 203/218/39 200/216/39
f 160/217/51 207/694/51 203/218/51
f 205/219/50 207/694/50 160/217/50
f 159/221/40 206/695/40 205/219/40
f 208/222/57 206/695/57 159/221/57
f 204/224/56 208/222/56 161/223/56
f 202/226/49 204/224/49 156/225/49
f 202/228/55 154/696/55 153/229/55
f 197/231/54 201/230/54 153/229/54
f 220/232/41 210/254/41 162/233/41
f 220/232/53 157/234/53 163/235/53
f 167/237/52 221/697/52 222/236/52
f 223/238/39 221/697/39 167/237/39
f 225/240/51 223/238/51 164/239/51
f 165/242/50 224/243/50 225/240/50
f 224/243/40 165/242/40 176/244/40
f 177/246/57 212/698/57 215/245/57
f 211/247/56 212/698/56 177/246/56
f 211/247/49 175/248/49 174/249/49
f 213/251/55 174/699/55 173/252/55
f 173/252/54 162/233/54 210/254/54
f 268/255/42 267/261/42 250/256/42
f 254/258/58 253/283/58 258/259/58
f 267/261/58 254/258/58 257/260/58
f 292/264/59 257/339/59 258/262/59
f 258/262/59 287/338/59 288/263/59
f 288/263/59 291/270/59 292/264/59
f 280/267/60 277/290/60 274/288/60
f 274/288/60 275/287/60 272/265/60
f 272/265/60 269/285/60 282/266/60
f 282/266/60 283/292/60 280/267/60
f 280/267/60 274/288/60 272/265/60
f 291/270/59 288/263/59 285/268/59
f 285/268/59 298/300/59 293/269/59
f 293/269/59 290/295/59 291/270/59
f 260/271/59 295/341/59 300/272/59
f 262/274/42 261/323/42 255/275/42
f 266/277/38 265/334/38 251/278/38
f 263/280/38 264/453/38 245/281/38
f 253/283/58 266/277/58 246/279/58
f 272/265/60 271/314/60 270/284/60
f 273/286/60 276/322/60 275/287/60
f 280/267/60 279/332/60 278/289/60
f 281/291/60 284/336/60 283/292/60
f 288/263/59 287/338/59 286/293/59
f 289/294/59 292/264/59 291/270/59
f 296/296/59 295/341/59 294/297/59
f 297/298/59 300/272/59 299/299/59
f 290/301/61 277/700/61 278/302/61
f 282/304/62 285/701/62 286/305/62
f 298/307/63 269/702/63 270/308/63
f 274/310/64 293/703/64 294/311/64
f 270/308/58 263/280/58 252/282/58
f 248/315/60 264/704/60 263/313/60
f 263/313/60 270/284/60 271/314/60
f 305/705/38 301/706/38 285/701/38
f 282/304/38 343/707/38 346/708/38
f 282/304/38 346/708/38 341/709/38
f 306/710/38 305/705/38 285/701/38
f 308/711/38 306/710/38 285/701/38
f 285/701/38 282/304/38 341/709/38
f 285/701/38 341/709/38 347/712/38
f 337/713/38 336/714/38 335/715/38
f 337/713/38 335/715/38 348/716/38
f 340/717/38 337/713/38 348/716/38
f 340/717/38 348/716/38 333/718/38
f 309/719/38 310/720/38 311/721/38
f 314/722/38 309/719/38 311/721/38
f 314/722/38 311/721/38 313/723/38
f 325/724/38 314/722/38 313/723/38
f 325/724/38 313/723/38 308/711/38
f 326/725/38 325/724/38 308/711/38
f 347/712/38 340/717/38 333/718/38
f 347/712/38 333/718/38 332/726/38
f 326/725/38 308/711/38 285/701/38
f 327/318/38 326/725/38 285/701/38
f 285/701/38 347/712/38 332/726/38
f 285/701/38 332/726/38 334/727/38
f 327/318/38 285/701/38 334/727/38
f 330/316/38 331/728/38 328/729/38
f 327/318/38 334/727/38 330/316/38
f 330/316/38 328/729/38 329/317/38
f 342/730/38 343/707/38 282/304/38
f 298/307/38 285/701/38 301/706/38
f 298/307/38 301/706/38 302/731/38
f 342/730/38 282/304/38 269/702/38
f 345/732/38 342/730/38 269/702/38
f 298/307/38 302/731/38 303/733/38
f 298/307/38 303/733/38 304/734/38
f 344/735/38 345/732/38 269/702/38
f 338/736/38 344/735/38 269/702/38
f 269/702/38 298/307/38 304/734/38
f 269/702/38 304/734/38 307/737/38
f 312/738/38 310/720/38 309/719/38
f 312/738/38 309/719/38 315/739/38
f 335/715/38 336/714/38 339/740/38
f 323/741/38 335/715/38 339/740/38
f 323/741/38 339/740/38 338/736/38
f 322/742/38 323/741/38 338/736/38
f 307/737/38 312/738/38 315/739/38
f 307/737/38 315/739/38 319/743/38
f 322/742/38 338/736/38 269/702/38
f 324/744/38 322/742/38 269/702/38
f 269/702/38 307/737/38 319/743/38
f 269/702/38 319/743/38 316/745/38
f 324/744/38 269/702/38 316/745/38
f 324/744/38 316/745/38 318/746/38
f 320/321/38 324/744/38 318/746/38
f 317/319/38 328/729/38 331/728/38
f 320/321/38 318/746/38 317/319/38
f 317/319/38 331/728/38 321/320/38
f 276/322/60 247/747/60 248/315/60
f 248/315/60 271/314/60 272/265/60
f 272/265/60 275/287/60 276/322/60
f 261/323/58 273/312/58 294/311/58
f 273/286/60 261/748/60 262/324/60
f 262/324/60 247/747/60 276/322/60
f 350/749/42 349/750/42 290/301/42
f 274/310/42 277/700/42 391/751/42
f 274/310/42 391/751/42 390/752/42
f 350/749/42 290/301/42 293/703/42
f 351/753/42 350/749/42 293/703/42
f 274/310/42 390/752/42 393/754/42
f 274/310/42 393/754/42 392/755/42
f 352/756/42 351/753/42 293/703/42
f 355/757/42 352/756/42 293/703/42
f 293/703/42 274/310/42 392/755/42
f 293/703/42 392/755/42 386/758/42
f 387/759/42 383/760/42 384/761/42
f 387/759/42 384/761/42 381/762/42
f 372/763/42 357/764/42 359/765/42
f 374/766/42 372/763/42 359/765/42
f 374/766/42 359/765/42 355/757/42
f 373/767/42 374/766/42 355/757/42
f 386/758/42 387/759/42 381/762/42
f 386/758/42 381/762/42 380/768/42
f 373/767/42 355/757/42 293/703/42
f 375/640/42 373/767/42 293/703/42
f 293/703/42 386/758/42 380/768/42
f 293/703/42 380/768/42 382/769/42
f 375/640/42 293/703/42 382/769/42
f 375/640/42 382/769/42 378/770/42
f 377/327/42 375/640/42 378/770/42
f 379/325/42 366/771/42 367/772/42
f 377/327/42 378/770/42 379/325/42
f 379/325/42 367/772/42 376/326/42
f 394/773/42 391/751/42 277/700/42
f 290/301/42 349/750/42 353/774/42
f 290/301/42 353/774/42 354/775/42
f 389/776/42 394/773/42 277/700/42
f 395/777/42 389/776/42 277/700/42
f 277/700/42 290/301/42 354/775/42
f 277/700/42 354/775/42 356/778/42
f 358/779/42 357/764/42 372/763/42
f 358/779/42 372/763/42 362/780/42
f 360/781/42 358/779/42 362/780/42
f 360/781/42 362/780/42 361/782/42
f 384/761/42 383/760/42 385/783/42
f 396/784/42 384/761/42 385/783/42
f 396/784/42 385/783/42 388/785/42
f 370/786/42 396/784/42 388/785/42
f 370/786/42 388/785/42 395/777/42
f 369/787/42 370/786/42 395/777/42
f 356/778/42 360/781/42 361/782/42
f 356/778/42 361/782/42 365/788/42
f 369/787/42 395/777/42 277/700/42
f 371/330/42 369/787/42 277/700/42
f 277/700/42 356/778/42 365/788/42
f 277/700/42 365/788/42 363/789/42
f 371/330/42 277/700/42 363/789/42
f 364/328/42 367/772/42 366/771/42
f 371/330/42 363/789/42 364/328/42
f 364/328/42 366/771/42 368/329/42
f 278/302/65 268/255/65 256/257/65
f 254/333/60 267/790/60 268/331/60
f 268/331/60 278/289/60 279/332/60
f 265/334/65 281/306/65 286/305/65
f 281/291/60 265/791/60 266/335/60
f 266/335/60 253/792/60 284/336/60
f 299/299/59 296/296/59 293/269/59
f 287/338/59 258/262/59 246/337/59
f 246/337/59 251/793/59 286/293/59
f 256/340/59 250/794/59 257/339/59
f 257/339/59 292/264/59 289/294/59
f 295/341/59 296/296/59 299/299/59
f 295/341/59 260/271/59 249/342/59
f 249/342/59 255/795/59 294/297/59
f 252/343/59 245/796/59 259/273/59
f 259/273/59 300/272/59 297/298/59
f 284/336/60 253/792/60 254/333/60
f 254/333/60 279/332/60 280/267/60
f 280/267/60 283/292/60 284/336/60
f 343/344/59 342/347/59 390/345/59
f 345/166/66 393/165/66 390/345/66
f 344/348/67 392/350/67 393/165/67
f 338/349/58 386/352/58 392/350/58
f 338/349/68 339/354/68 387/351/68
f 336/353/69 383/356/69 387/351/69
f 337/355/60 385/797/60 383/356/60
f 388/357/70 385/797/70 337/355/70
f 347/359/71 395/798/71 388/357/71
f 389/360/65 395/799/65 347/361/65
f 394/363/72 389/360/72 341/362/72
f 343/344/73 391/346/73 394/363/73
f 348/365/59 335/368/59 384/366/59
f 335/368/66 323/371/66 381/369/66
f 322/370/67 380/373/67 381/369/67
f 324/372/58 382/375/58 380/373/58
f 324/372/68 320/377/68 378/374/68
f 379/376/69 378/374/69 320/377/69
f 331/379/60 366/800/60 379/376/60
f 368/380/70 366/800/70 331/379/70
f 334/382/71 371/801/71 368/380/71
f 369/383/65 371/802/65 334/384/65
f 370/386/72 369/383/72 332/385/72
f 333/387/73 348/365/73 396/367/73
f 350/388/60 302/803/60 301/389/60
f 303/391/69 302/803/69 350/388/69
f 304/393/68 303/391/68 351/392/68
f 304/393/58 352/394/58 355/395/58
f 307/396/67 355/395/67 359/397/67
f 310/399/66 312/398/66 359/397/66
f 311/401/59 310/399/59 357/400/59
f 311/401/73 358/402/73 360/403/73
f 308/405/72 313/404/72 360/403/72
f 306/407/65 308/405/65 356/406/65
f 305/409/71 306/804/71 354/410/71
f 301/389/70 305/409/70 353/411/70
f 372/412/60 309/805/60 314/413/60
f 315/415/69 309/805/69 372/412/69
f 315/415/68 374/416/68 373/417/68
f 319/418/58 373/417/58 375/419/58
f 318/241/67 316/420/67 375/419/67
f 318/241/66 377/421/66 376/422/66
f 328/424/59 317/423/59 376/422/59
f 328/424/73 367/425/73 364/426/73
f 327/428/72 329/427/72 364/426/72
f 326/430/65 327/428/65 363/429/65
f 361/432/71 325/435/71 326/433/71
f 361/432/70 362/414/70 314/413/70
f 420/436/42 419/438/42 402/277/42
f 406/437/58 405/456/58 410/258/58
f 419/438/58 406/437/58 409/283/58
f 444/441/59 409/502/59 410/439/59
f 410/439/59 439/501/59 440/440/59
f 440/440/59 443/447/59 444/441/59
f 432/444/60 429/463/60 426/461/60
f 426/461/60 427/460/60 424/442/60
f 424/442/60 421/458/60 434/443/60
f 434/443/60 435/465/60 432/444/60
f 432/444/60 426/461/60 424/442/60
f 443/447/59 440/440/59 437/445/59
f 437/445/59 450/473/59 445/446/59
f 445/446/59 442/468/59 443/447/59
f 412/448/59 447/504/59 452/449/59
f 414/451/42 413/490/42 407/452/42
f 418/454/38 417/497/38 403/255/38
f 415/455/38 416/806/38 397/274/38
f 405/456/58 418/454/58 398/261/58
f 424/442/60 423/484/60 422/457/60
f 425/459/60 428/489/60 427/460/60
f 432/444/60 431/495/60 430/462/60
f 433/464/60 436/499/60 435/465/60
f 440/440/59 439/501/59 438/466/59
f 441/467/59 444/441/59 443/447/59
f 448/469/59 447/504/59 446/470/59
f 449/471/59 452/449/59 451/472/59
f 442/474/61 429/807/61 430/475/61
f 434/120/62 437/808/62 438/477/62
f 450/310/63 421/809/63 422/479/63
f 426/480/64 445/702/64 446/481/64
f 422/479/58 415/455/58 404/323/58
f 400/485/60 416/810/60 415/483/60
f 415/483/60 422/457/60 423/484/60
f 457/811/38 453/751/38 437/808/38
f 434/120/38 495/604/38 498/603/38
f 434/120/38 498/603/38 493/812/38
f 458/813/38 457/811/38 437/808/38
f 460/814/38 458/813/38 437/808/38
f 437/808/38 434/120/38 493/812/38
f 437/808/38 493/812/38 499/815/38
f 489/816/38 488/615/38 487/614/38
f 489/816/38 487/614/38 500/617/38
f 492/817/38 489/816/38 500/617/38
f 492/817/38 500/617/38 485/782/38
f 461/818/38 462/760/38 463/819/38
f 466/820/38 461/818/38 463/819/38
f 466/820/38 463/819/38 465/785/38
f 477/821/38 466/820/38 465/785/38
f 477/821/38 465/785/38 460/814/38
f 478/822/38 477/821/38 460/814/38
f 499/815/38 492/817/38 485/782/38
f 499/815/38 485/782/38 484/823/38
f 478/822/38 460/814/38 437/808/38
f 479/486/38 478/822/38 437/808/38
f 437/808/38 499/815/38 484/823/38
f 437/808/38 484/823/38 486/824/38
f 479/486/38 437/808/38 486/824/38
f 482/328/38 483/825/38 480/826/38
f 479/486/38 486/824/38 482/328/38
f 482/328/38 480/826/38 481/329/38
f 494/827/38 495/604/38 434/120/38
f 450/310/38 437/808/38 453/751/38
f 450/310/38 453/751/38 454/752/38
f 494/827/38 434/120/38 421/809/38
f 497/828/38 494/827/38 421/809/38
f 450/310/38 454/752/38 455/829/38
f 450/310/38 455/829/38 456/830/38
f 496/628/38 497/828/38 421/809/38
f 490/631/38 496/628/38 421/809/38
f 421/809/38 450/310/38 456/830/38
f 421/809/38 456/830/38 459/831/38
f 464/832/38 462/760/38 461/818/38
f 464/832/38 461/818/38 467/833/38
f 487/614/38 488/615/38 491/834/38
f 475/835/38 487/614/38 491/834/38
f 475/835/38 491/834/38 490/631/38
f 474/767/38 475/835/38 490/631/38
f 459/831/38 464/832/38 467/833/38
f 459/831/38 467/833/38 471/836/38
f 474/767/38 490/631/38 421/809/38
f 476/640/38 474/767/38 421/809/38
f 421/809/38 459/831/38 471/836/38
f 421/809/38 471/836/38 468/837/38
f 476/640/38 421/809/38 468/837/38
f 476/640/38 468/837/38 470/838/38
f 472/488/38 476/640/38 470/838/38
f 469/487/38 480/826/38 483/825/38
f 472/488/38 470/838/38 469/487/38
f 469/487/38 483/825/38 473/326/38
f 428/489/60 399/839/60 400/485/60
f 400/485/60 423/484/60 424/442/60
f 424/442/60 427/460/60 428/489/60
f 413/490/58 425/482/58 446/481/58
f 425/459/60 413/840/60 414/491/60
f 414/491/60 399/839/60 428/489/60
f 502/841/42 501/707/42 442/474/42
f 426/480/42 429/807/42 543/842/42
f 426/480/42 543/842/42 542/843/42
f 502/841/42 442/474/42 445/702/42
f 503/844/42 502/841/42 445/702/42
f 426/480/42 542/843/42 545/845/42
f 426/480/42 545/845/42 544/846/42
f 504/735/42 503/844/42 445/702/42
f 507/847/42 504/735/42 445/702/42
f 445/702/42 426/480/42 544/846/42
f 445/702/42 544/846/42 538/848/42
f 539/849/42 535/850/42 536/851/42
f 539/849/42 536/851/42 533/852/42
f 524/853/42 509/714/42 511/854/42
f 526/855/42 524/853/42 511/854/42
f 526/855/42 511/854/42 507/847/42
f 525/742/42 526/855/42 507/847/42
f 538/848/42 539/849/42 533/852/42
f 538/848/42 533/852/42 532/856/42
f 525/742/42 507/847/42 445/702/42
f 527/744/42 525/742/42 445/702/42
f 445/702/42 538/848/42 532/856/42
f 445/702/42 532/856/42 534/857/42
f 527/744/42 445/702/42 534/857/42
f 527/744/42 534/857/42 530/858/42
f 529/321/42 527/744/42 530/858/42
f 531/319/42 518/859/42 519/860/42
f 529/321/42 530/858/42 531/319/42
f 531/319/42 519/860/42 528/320/42
f 546/861/42 543/842/42 429/807/42
f 442/474/42 501/707/42 505/708/42
f 442/474/42 505/708/42 506/862/42
f 541/863/42 546/861/42 429/807/42
f 547/864/42 541/863/42 429/807/42
f 429/807/42 442/474/42 506/862/42
f 429/807/42 506/862/42 508/865/42
f 510/866/42 509/714/42 524/853/42
f 510/866/42 524/853/42 514/716/42
f 512/867/42 510/866/42 514/716/42
f 512/867/42 514/716/42 513/868/42
f 536/851/42 535/850/42 537/869/42
f 548/870/42 536/851/42 537/869/42
f 548/870/42 537/869/42 540/871/42
f 522/872/42 548/870/42 540/871/42
f 522/872/42 540/871/42 547/864/42
f 521/873/42 522/872/42 547/864/42
f 508/865/42 512/867/42 513/868/42
f 508/865/42 513/868/42 517/874/42
f 521/873/42 547/864/42 429/807/42
f 523/493/42 521/873/42 429/807/42
f 429/807/42 508/865/42 517/874/42
f 429/807/42 517/874/42 515/727/42
f 523/493/42 429/807/42 515/727/42
f 516/316/42 519/860/42 518/859/42
f 523/493/42 515/727/42 516/316/42
f 516/316/42 518/859/42 520/492/42
f 430/475/65 420/436/65 408/334/65
f 406/496/60 419/875/60 420/494/60
f 420/494/60 430/462/60 431/495/60
f 417/497/65 433/478/65 438/477/65
f 433/464/60 417/876/60 418/498/60
f 418/498/60 405/877/60 436/499/60
f 451/472/59 448/469/59 445/446/59
f 439/501/59 410/439/59 398/500/59
f 398/500/59 403/878/59 438/466/59
f 408/503/59 402/879/59 409/502/59
f 409/502/59 444/441/59 441/467/59
f 447/504/59 448/469/59 451/472/59
f 447/504/59 412/448/59 401/505/59
f 401/505/59 407/880/59 446/470/59
f 404/506/59 397/881/59 411/450/59
f 411/450/59 452/449/59 449/471/59
f 436/499/60 405/877/60 406/496/60
f 406/496/60 431/495/60 432/444/60
f 432/444/60 435/465/60 436/499/60
f 495/162/59 494/164/59 542/507/59
f 497/508/66 545/509/66 542/507/66
f 496/348/67 544/510/67 545/509/67
f 490/349/58 538/512/58 544/510/58
f 491/511/68 539/514/68 538/512/68
f 488/513/69 535/356/69 539/514/69
f 489/515/60 537/797/60 535/356/60
f 540/516/70 537/797/70 489/515/70
f 547/178/71 540/516/71 492/517/71
f 541/518/65 547/882/65 499/519/65
f 498/521/72 546/522/72 541/518/72
f 495/162/73 543/185/73 546/522/73
f 500/523/59 487/188/59 536/187/59
f 487/188/66 475/526/66 533/525/66
f 475/526/67 474/529/67 532/527/67
f 476/528/58 534/530/58 532/527/58
f 472/195/68 530/532/68 534/530/68
f 473/531/69 531/534/69 530/532/69
f 483/533/60 518/536/60 531/534/60
f 482/535/70 520/538/70 518/536/70
f 486/537/71 523/883/71 520/538/71
f 521/539/65 523/884/65 486/540/65
f 522/542/72 521/539/72 484/541/72
f 485/543/73 500/523/73 548/524/73
f 502/544/60 454/885/60 453/545/60
f 455/547/69 454/885/69 502/544/69
f 455/547/68 503/548/68 504/549/68
f 456/550/58 504/549/58 507/551/58
f 464/553/67 459/552/67 507/551/67
f 462/555/66 464/553/66 511/554/66
f 463/557/59 462/555/59 509/556/59
f 463/557/73 510/558/73 512/559/73
f 460/561/72 465/560/72 512/559/72
f 458/563/65 460/561/65 508/562/65
f 457/565/71 458/886/71 506/566/71
f 453/545/70 457/565/70 505/567/70
f 524/568/60 461/887/60 466/569/60
f 467/571/69 461/887/69 524/568/69
f 467/571/68 526/572/68 525/573/68
f 471/574/58 525/573/58 527/575/58
f 470/577/67 468/576/67 527/575/67
f 469/579/66 470/577/66 529/578/66
f 480/581/59 469/579/59 528/580/59
f 481/583/73 480/581/73 519/582/73
f 479/585/72 481/583/72 516/584/72
f 478/587/65 479/585/65 515/586/65
f 513/589/71 477/592/71 478/590/71
f 513/589/70 514/570/70 466/569/70
o BeamSide
v 4.379820 3.694960 -1.821334
v 4.379820 4.181960 -1.821334
v -4.379819 3.694960 -1.656037
v -4.379819 3.694960 -1.681633
v 4.379820 3.694960 -1.516334
v 4.379820 4.181960 -1.516334
v 4.379820 4.152346 -1.821334
v 4.379820 3.724575 -1.821334
v -4.379819 4.181960 -1.681633
v -4.379819 4.181960 -1.656037
v 4.379820 3.724575 -1.516334
v 4.379820 4.152346 -1.516334
v 4.379820 4.181960 -1.656036
v 4.379820 4.181960 -1.681632
v 4.379820 3.694960 -1.681632
v 4.379820 3.694960 -1.656036
v -4.379819 3.724575 -1.516335
v -4.379819 3.694960 -1.516335
v -4.379819 3.724575 -1.821335
v -4.379819 3.694960 -1.821335
v -4.379819 4.152346 -1.821335
v -4.379819 4.181960 -1.821335
v -4.379819 4.181960 -1.516335
v -4.379819 4.152346 -1.516335
v -4.379819 3.737549 -1.681633
v -4.379819 3.724575 -1.689758
v -4.379819 3.711601 -1.681633
v -4.379819 3.724575 -1.673508
v -4.379819 3.724575 -1.647912
v -4.379819 3.737549 -1.656037
v -4.379819 3.724575 -1.664162
v -4.379819 3.711601 -1.656037
v -4.379819 4.139372 -1.656037
v -4.379819 4.152346 -1.647912
v -4.379819 4.165318 -1.656037
v -4.379819 4.152346 -1.664162
v -4.379819 4.152346 -1.689758
v -4.379819 4.139372 -1.681633
v -4.379819 4.152346 -1.673508
v -4.379819 4.165318 -1.681633
v 4.379820 4.139372 -1.681632
v 4.379820 4.152346 -1.689757
v 4.379820 4.165318 -1.681632
v 4.379820 4.152346 -1.673507
v 4.379820 4.152346 -1.647911
v 4.379820 4.139372 -1.656036
v 4.379820 4.152346 -1.664161
v 4.379820 4.165318 -1.656036
v 4.379820 3.737549 -1.656036
v 4.379820 3.724575 -1.647911
v 4.379820 3.711601 -1.656036
v 4.379820 3.724575 -1.664161
v 4.379820 3.724575 -1.689757
v 4.379820 3.737549 -1.681632
v 4.379820 3.724575 -1.673507
v 4.379820 3.711601 -1.681632
v 4.379820 3.694960 1.821334
v 4.379820 4.181960 1.821334
v -4.379819 3.694960 1.656037
v -4.379819 3.694960 1.681633
v 4.379820 3.694960 1.516334
v 4.379820 4.181960 1.516334
v 4.379820 4.152346 1.821334
v 4.379820 3.724575 1.821334
v -4.379819 4.181960 1.681633
v -4.379819 4.181960 1.656037
v 4.379820 3.724575 1.516334
v 4.379820 4.152346 1.516334
v 4.379820 4.181960 1.656036
v 4.379820 4.181960 1.681632
v 4.379820 3.694960 1.681632
v 4.379820 3.694960 1.656036
v -4.379819 3.724575 1.516335
v -4.379819 3.694960 1.516335
v -4.379819 3.724575 1.821335
v -4.379819 3.694960 1.821335
v -4.379819 4.152346 1.821335
v -4.379819 4.181960 1.821335
v -4.379819 4.181960 1.516335
v -4.379819 4.152346 1.516335
v -4.379819 3.737549 1.681633
v -4.379819 3.724575 1.689758
v -4.379819 3.711601 1.681633
v -4.379819 3.724575 1.673508
v -4.379819 3.724575 1.647912
v -4.379819 3.737549 1.656037
v -4.379819 3.724575 1.664162
v -4.379819 3.711601 1.656037
v -4.379819 4.139372 1.656037
v -4.379819 4.152346 1.647912
v -4.379819 4.165318 1.656037
v -4.379819 4.152346 1.664162
v -4.379819 4.152346 1.689758
v -4.379819 4.139372 1.681633
v -4.379819 4.152346 1.673508
v -4.379819 4.165318 1.681633
v 4.379820 4.139372 1.681632
v 4.379820 4.152346 1.689757
v 4.379820 4.165318 1.681632
v 4.379820 4.152346 1.673507
v 4.379820 4.152346 1.647911
v 4.379820 4.139372 1.656036
v 4.379820 4.152346 1.664162
v 4.379820 4.165318 1.656036
v 4.379820 3.737549 1.656036
v 4.379820 3.724575 1.647911
v 4.379820 3.711601 1.656036
v 4.379820 3.724575 1.664162
v 4.379820 3.724575 1.689757
v 4.379820 3.737549 1.681632
v 4.379820 3.724575 1.673507
v 4.379820 3.711601 1.681632
vn -0.0000 -0.0000 1.0000
vn -0.0000 1.0000 -0.0000
vn 1.0000 -0.0000 -0.0000
vn -1.0000 -0.0000 -0.0000
vn -0.0000 -0.0000 -1.0000
vn -0.0000 -0.5308 0.8475
vn -0.0000 -0.5308 -0.8475
vn -0.0000 0.5308 -0.8475
vn -0.0000 0.5308 0.8475
vn -0.0000 -1.0000 -0.0000
vn 1.0000 -0.0000 -0.0001
vn -1.0000 -0.0000 0.0001
vn -1.0000 -0.0000 -0.0001
vt 0.000000 0.279297
vt 0.539062 0.281250
vt 0.000000 0.281250
vt 0.000000 0.267578
vt 0.539062 0.269531
vt 0.000000 0.269531
vt 0.539062 0.279297
vt 0.728424 0.426783
vt 0.729516 0.427594
vt 0.727916 0.428634
vt 0.702862 0.400400
vt 0.703370 0.426327
vt 0.702278 0.427138
vt 0.729008 0.426783
vt 0.727916 0.425972
vt 0.729516 0.400855
vt 0.729516 0.399233
vt 0.727916 0.398193
vt 0.729516 0.398193
vt 0.000000 0.324219
vt 0.539062 0.326172
vt 0.000000 0.326172
vt 0.000000 0.257812
vt 0.539062 0.259766
vt 0.000000 0.259766
vt 0.000000 0.212891
vt 0.539062 0.214844
vt 0.000000 0.214844
vt 0.539062 0.267578
vt 0.701262 0.400400
vt 0.702278 0.400400
vt 0.701770 0.401211
vt 0.703878 0.400400
vt 0.703370 0.399589
vt 0.703878 0.427138
vt 0.702862 0.427138
vt 0.701262 0.427138
vt 0.701770 0.427949
vt 0.730024 0.426783
vt 0.729516 0.425972
vt 0.727408 0.426783
vt 0.727916 0.427594
vt 0.727408 0.400044
vt 0.728424 0.400044
vt 0.727916 0.400855
vt 0.730024 0.400044
vt 0.729008 0.400044
vt 0.539062 0.289062
vt 0.000000 0.289062
vt 0.000000 0.250000
vt 0.539062 0.248047
vt 0.539062 0.250000
vt 0.539062 0.222656
vt 0.000000 0.222656
vt 0.000000 0.316406
vt 0.539062 0.314453
vt 0.539062 0.316406
vt 0.701770 0.399589
vt 0.693038 0.400400
vt 0.693038 0.398549
vt 0.000000 0.248047
vt 0.703370 0.398549
vt 0.539062 0.324219
vt 0.712102 0.400400
vt 0.000000 0.314453
vt 0.712102 0.428989
vt 0.703370 0.427949
vt 0.539062 0.257812
vt 0.693038 0.428989
vt 0.693038 0.427138
vt 0.738248 0.428634
vt 0.729516 0.428634
vt 0.719183 0.428634
vt 0.727916 0.399233
vt 0.719183 0.400044
vt 0.738248 0.398193
vt 0.701770 0.428989
vt 0.727916 0.428634
vt 0.729516 0.427594
vt 0.728424 0.426783
vt 0.703370 0.426327
vt 0.702862 0.400400
vt 0.701770 0.401211
vt 0.729516 0.400855
vt 0.727916 0.425972
vt 0.729008 0.426783
vt 0.727916 0.398193
vt 0.702278 0.400400
vt 0.701262 0.400400
vt 0.703370 0.401211
vt 0.702862 0.427138
vt 0.703878 0.427138
vt 0.701262 0.427138
vt 0.702278 0.427138
vt 0.701770 0.426327
vt 0.730024 0.426783
vt 0.729516 0.425972
vt 0.727408 0.426783
vt 0.728424 0.400044
vt 0.727408 0.400044
vt 0.727916 0.400855
vt 0.730024 0.400044
vt 0.729008 0.400044
vt 0.693038 0.398549
vt 0.703370 0.398549
vt 0.712102 0.400400
vt 0.703370 0.428989
vt 0.712102 0.428989
vt 0.693038 0.427138
vt 0.701770 0.428989
vt 0.701770 0.427949
vt 0.738248 0.426783
vt 0.719183 0.428634
vt 0.727916 0.427594
vt 0.727916 0.399233
vt 0.719183 0.400044
vt 0.738248 0.400044
vt 0.738248 0.398193
vt 0.703370 0.427949
vt 0.701770 0.426327
vt 0.703370 0.401211
vt 0.539062 0.212891
vt 0.701770 0.398549
vt 0.712102 0.398549
vt 0.712102 0.427138
vt 0.703370 0.428989
vt 0.738248 0.426783
vt 0.719183 0.426783
vt 0.719183 0.398193
vt 0.738248 0.400044
vt 0.703370 0.399589
vt 0.693038 0.400400
vt 0.712102 0.398549
vt 0.712102 0.427138
vt 0.693038 0.428989
vt 0.738248 0.428634
vt 0.719183 0.426783
vt 0.719183 0.398193
s 0
f 554/888/74 572/889/74 560/890/74
f 562/891/75 558/892/75 561/893/75
f 561/893/75 571/894/75 554/888/75
f 595/895/76 591/896/76 561/897/76
f 579/898/77 581/899/77 587/900/77
f 592/901/76 594/902/76 602/903/76
f 604/904/76 564/905/76 563/906/76
f 559/907/74 566/908/74 553/909/74
f 555/910/78 570/911/78 550/912/78
f 549/913/78 567/914/78 556/915/78
f 550/912/75 557/916/75 562/891/75
f 574/917/77 576/918/77 573/919/77
f 577/920/77 579/898/77 580/921/77
f 582/922/77 584/923/77 581/899/77
f 585/924/77 587/900/77 588/925/77
f 590/926/76 592/901/76 589/927/76
f 593/928/76 595/895/76 596/929/76
f 598/930/76 600/931/76 597/932/76
f 601/933/76 603/934/76 604/904/76
f 582/935/79 594/936/79 593/936/79
f 590/937/80 586/938/80 585/939/80
f 574/940/81 602/941/81 601/941/81
f 598/942/82 578/943/82 577/944/82
f 556/915/75 574/940/75 601/941/75
f 575/945/77 567/946/77 568/947/77
f 602/941/78 586/938/78 589/948/78
f 575/945/77 551/949/77 579/898/77
f 598/942/75 565/950/75 559/907/75
f 565/951/77 580/921/77 551/949/77
f 594/936/74 578/943/74 597/952/74
f 560/890/83 582/935/83 593/936/83
f 571/953/77 583/954/77 582/922/77
f 590/937/83 569/955/83 555/910/83
f 588/925/77 570/956/77 569/957/77
f 597/932/76 603/934/76 602/903/76
f 590/926/76 550/958/76 562/959/76
f 593/928/76 561/897/76 554/960/76
f 603/934/76 599/961/76 604/904/76
f 564/905/76 598/930/76 559/962/76
f 549/963/76 601/933/76 604/904/76
f 587/900/77 583/954/77 557/964/77
f 628/889/78 610/888/78 616/890/78
f 614/892/75 618/891/75 617/893/75
f 627/894/75 617/893/75 610/888/75
f 617/965/76 647/966/76 651/967/76
f 637/968/77 635/969/77 629/970/77
f 658/971/76 650/972/76 648/973/76
f 620/974/76 660/904/76 619/906/76
f 622/908/78 615/907/78 609/909/78
f 626/911/74 611/910/74 606/912/74
f 623/914/74 605/913/74 612/915/74
f 613/916/75 606/912/75 618/891/75
f 632/975/77 630/976/77 629/970/77
f 633/920/77 635/969/77 634/977/77
f 640/978/77 638/979/77 637/968/77
f 641/980/77 643/981/77 642/982/77
f 648/973/76 646/983/76 645/984/76
f 649/985/76 651/967/76 650/972/76
f 656/986/76 654/987/76 653/988/76
f 657/989/76 659/990/76 658/971/76
f 650/936/80 638/935/80 649/936/80
f 642/938/79 646/937/79 641/939/79
f 658/941/82 630/940/82 657/941/82
f 634/943/81 654/942/81 633/944/81
f 630/940/75 612/915/75 657/941/75
f 624/991/77 630/976/77 631/945/77
f 642/938/74 658/941/74 645/948/74
f 635/969/77 607/992/77 631/945/77
f 621/950/75 654/942/75 615/907/75
f 607/992/77 633/920/77 621/993/77
f 634/943/78 650/936/78 653/952/78
f 638/935/83 616/890/83 649/936/83
f 638/979/77 614/994/77 627/995/77
f 625/955/83 646/937/83 611/910/83
f 625/996/77 613/997/77 644/998/77
f 659/990/76 653/988/76 658/971/76
f 618/959/76 611/999/76 646/983/76
f 610/1000/76 652/1001/76 649/985/76
f 655/1002/76 659/990/76 660/904/76
f 615/1003/76 655/1002/76 620/974/76
f 660/904/76 612/1004/76 605/1005/76
f 613/997/77 639/1006/77 643/981/77
f 554/888/74 571/894/74 572/889/74
f 562/891/75 557/916/75 558/892/75
f 561/893/75 558/892/75 571/894/75
f 561/897/84 596/929/84 595/895/84
f 595/895/76 592/901/76 591/896/76
f 591/896/76 562/959/76 561/897/76
f 587/900/77 586/1007/77 573/919/77
f 573/919/77 576/918/77 579/898/77
f 579/898/77 578/1008/77 581/899/77
f 581/899/77 584/923/77 587/900/77
f 587/900/77 573/919/77 579/898/77
f 602/903/76 589/927/76 592/901/76
f 592/901/76 595/895/76 594/902/76
f 594/902/76 597/932/76 602/903/76
f 604/904/76 599/961/76 564/905/76
f 559/907/74 565/950/74 566/908/74
f 555/910/78 569/955/78 570/911/78
f 549/913/78 568/1009/78 567/914/78
f 550/912/75 570/911/75 557/916/75
f 574/917/77 575/945/77 576/918/77
f 577/920/77 578/1008/77 579/898/77
f 582/922/77 583/954/77 584/923/77
f 585/924/77 586/1007/77 587/900/77
f 590/926/76 591/896/76 592/901/76
f 593/928/76 594/902/76 595/895/76
f 598/930/76 599/961/76 600/931/76
f 601/933/76 602/903/76 603/934/76
f 582/935/79 581/935/79 594/936/79
f 590/937/80 589/948/80 586/938/80
f 574/940/81 573/940/81 602/941/81
f 598/942/82 597/952/82 578/943/82
f 556/915/75 567/914/75 574/940/75
f 568/947/77 552/1010/77 575/945/77
f 575/945/77 574/917/77 567/946/77
f 602/941/78 573/940/78 586/938/78
f 579/898/77 576/918/77 575/945/77
f 575/945/77 552/1010/77 551/949/77
f 551/949/77 580/921/77 579/898/77
f 598/942/75 577/944/75 565/950/75
f 551/949/77 566/1011/77 565/951/77
f 565/951/77 577/920/77 580/921/77
f 594/936/74 581/935/74 578/943/74
f 560/890/83 572/889/83 582/935/83
f 582/922/77 572/1012/77 571/953/77
f 571/953/77 558/1013/77 583/954/77
f 590/937/83 585/939/83 569/955/83
f 569/957/77 585/924/77 588/925/77
f 588/925/77 557/964/77 570/956/77
f 597/932/76 600/931/76 603/934/76
f 562/959/84 591/896/84 590/926/84
f 590/926/76 555/1014/76 550/958/76
f 554/960/76 560/1015/76 593/928/76
f 593/928/76 596/929/76 561/897/76
f 603/934/76 600/931/76 599/961/76
f 559/962/76 553/1016/76 564/905/76
f 564/905/84 599/961/84 598/930/84
f 604/904/76 563/906/76 549/963/76
f 549/963/76 556/1017/76 601/933/76
f 557/964/85 588/925/85 587/900/85
f 587/900/77 584/923/77 583/954/77
f 583/954/77 558/1013/77 557/964/77
f 628/889/78 627/894/78 610/888/78
f 614/892/75 613/916/75 618/891/75
f 627/894/75 614/892/75 617/893/75
f 651/967/76 652/1001/76 617/965/76
f 617/965/76 618/959/76 647/966/76
f 647/966/76 648/973/76 651/967/76
f 629/970/77 642/982/77 643/981/77
f 643/981/77 640/978/77 637/968/77
f 637/968/77 634/977/77 635/969/77
f 635/969/77 632/975/77 629/970/77
f 629/970/77 643/981/77 637/968/77
f 648/973/76 645/984/76 658/971/76
f 658/971/76 653/988/76 650/972/76
f 650/972/76 651/967/76 648/973/76
f 620/974/76 655/1002/76 660/904/76
f 622/908/78 621/950/78 615/907/78
f 626/911/74 625/955/74 611/910/74
f 623/914/74 624/1009/74 605/913/74
f 613/916/75 626/911/75 606/912/75
f 632/975/77 631/945/77 630/976/77
f 633/920/77 636/1018/77 635/969/77
f 640/978/77 639/1006/77 638/979/77
f 641/980/77 644/998/77 643/981/77
f 648/973/76 647/966/76 646/983/76
f 649/985/76 652/1001/76 651/967/76
f 656/986/76 655/1002/76 654/987/76
f 657/989/76 660/904/76 659/990/76
f 650/936/80 637/935/80 638/935/80
f 642/938/79 645/948/79 646/937/79
f 658/941/82 629/940/82 630/940/82
f 634/943/81 653/952/81 654/942/81
f 630/940/75 623/914/75 612/915/75
f 631/945/77 608/1010/77 624/991/77
f 624/991/77 623/1019/77 630/976/77
f 642/938/74 629/940/74 658/941/74
f 631/945/77 632/975/77 635/969/77
f 635/969/77 636/1018/77 607/992/77
f 607/992/77 608/1010/77 631/945/77
f 621/950/75 633/944/75 654/942/75
f 621/993/77 622/1020/77 607/992/77
f 607/992/77 636/1018/77 633/920/77
f 634/943/78 637/935/78 650/936/78
f 638/935/83 628/889/83 616/890/83
f 627/995/77 628/1021/77 638/979/77
f 638/979/86 639/1006/86 614/994/86
f 625/955/83 641/939/83 646/937/83
f 644/998/77 641/980/77 625/996/77
f 625/996/77 626/1022/77 613/997/77
f 659/990/76 656/986/76 653/988/76
f 646/983/76 647/966/76 618/959/76
f 618/959/76 606/1023/76 611/999/76
f 649/985/76 616/1024/76 610/1000/76
f 610/1000/76 617/965/76 652/1001/76
f 655/1002/76 656/986/76 659/990/76
f 620/974/76 609/1025/76 615/1003/76
f 615/1003/76 654/987/76 655/1002/76
f 605/1005/76 619/906/76 660/904/76
f 660/904/76 657/989/76 612/1004/76
f 643/981/86 644/998/86 613/997/86
f 613/997/77 614/994/77 639/1006/77
f 639/1006/77 640/978/77 643/981/77
o Net
v -4.376790 4.133813 1.657587
v 4.376790 4.133813 1.657587
v -4.376790 4.133813 -1.657587
v 4.376790 4.133813 -1.657587
vn -0.0000 1.0000 -0.0000
vt 0.001953 0.210938
vt 0.548828 0.003906
vt 0.548828 0.210938
vt 0.001953 0.003906
s 0
f 662/1026/87 663/1027/87 661/1028/87
f 662/1026/87 664/1029/87 663/1027/87
